<mxfile host="app.diagrams.net" modified="2024-01-23T08:39:50.442Z" agent="Mozilla/5.0 (Windows NT 10.0; Win64; x64) AppleWebKit/537.36 (KHTML, like Gecko) Chrome/120.0.0.0 Safari/537.36" etag="sY6STSNT-WwNOivalkJf" version="22.1.21" type="github">
  <diagram name="Page-1" id="7mS0Pd9CHC2X6tSkC_mh">
    <mxGraphModel dx="1615" dy="963" grid="1" gridSize="10" guides="1" tooltips="1" connect="1" arrows="1" fold="1" page="1" pageScale="1" pageWidth="827" pageHeight="1169" math="0" shadow="0">
      <root>
        <mxCell id="0" />
        <mxCell id="1" parent="0" />
        <mxCell id="hCn8fclELVwR4EzlVGi--7" value="" style="shape=image;verticalLabelPosition=bottom;labelBackgroundColor=default;verticalAlign=top;aspect=fixed;imageAspect=0;image=data:image/svg+xml,PHN2ZyB4bWxuczp4bGluaz0iaHR0cDovL3d3dy53My5vcmcvMTk5OS94bGluayIgeG1sbnM9Imh0dHA6Ly93d3cudzMub3JnLzIwMDAvc3ZnIiB0ZXh0LXJlbmRlcmluZz0iZ2VvbWV0cmljUHJlY2lzaW9uIiBzaGFwZS1yZW5kZXJpbmc9Imdlb21ldHJpY1ByZWNpc2lvbiIgdmlld0JveD0iMCAwIDEyLjUgMzYuNSIgaWQ9ImVweTJaVzRTbkZqMSI+PGc+PHJlY3Qgc3Ryb2tlLXdpZHRoPSIwLjg1IiBzdHJva2U9IiMwMDU1N2MiIGZpbGw9IiNhNmM0ZDEiIHRyYW5zZm9ybT0idHJhbnNsYXRlKC40MyAwLjQzKSIgcnk9IjAiIHJ4PSIwIiBoZWlnaHQ9IjM1LjQ0IiB3aWR0aD0iMTEuMzUiLz48cmVjdCBzdHJva2Utd2lkdGg9IjAuODUiIHN0cm9rZT0iIzAwNTU3YyIgZmlsbD0iIzAwNTU3YyIgdHJhbnNmb3JtPSJtYXRyaXgoLjQ4NzIyNCAwIDAtLjA0NDAxOCA1LjM0IDIuOTMpIiByeT0iMCIgcng9IjAiIGhlaWdodD0iMzUuNDQiIHdpZHRoPSIxMS4zNSIvPjxwYXRoIHN0cm9rZS13aWR0aD0iMC44NSIgc3Ryb2tlPSIjMDA1NTdjIiBmaWxsLXJ1bGU9ImV2ZW5vZGQiIGZpbGw9IiNhNmM0ZDEiIHRyYW5zZm9ybT0idHJhbnNsYXRlKC0zOTAuNzUtMTY4Ljk0KSIgZD0iIi8+PGxpbmUgc3Ryb2tlLXdpZHRoPSIwLjIzIiBzdHJva2U9IiMwMDU1N2MiIGZpbGw9Im5vbmUiIHkyPSIxNy40MyIgeDI9IjAuNDMiIHkxPSIxNy40MyIgeDE9IjExLjc3Ii8+PHBhdGggc3Ryb2tlLXdpZHRoPSIwLjIzIiBzdHJva2U9IiMwMDU1N2MiIGZpbGwtcnVsZT0iZXZlbm9kZCIgZmlsbD0iI2E2YzRkMSIgdHJhbnNmb3JtPSJ0cmFuc2xhdGUoLTM5MC43NS0xNjguOTQpIiBkPSIiLz48cG9seWxpbmUgc3Ryb2tlLXdpZHRoPSIwLjIzIiBzdHJva2U9IiNhNmM0ZDEiIGZpbGwtcnVsZT0iZXZlbm9kZCIgZmlsbD0iI2Q5ZWRmNSIgcG9pbnRzPSIxLjQ4LDMuODMgMi4zOSwzLjgzIDIuMzksMi45MyAxLjQ4LDIuOTMgMS40OCwzLjgzIi8+PHBvbHlsaW5lIHN0cm9rZS13aWR0aD0iMC4yMyIgc3Ryb2tlPSIjYTZjNGQxIiBmaWxsLXJ1bGU9ImV2ZW5vZGQiIGZpbGw9IiNkOWVkZjUiIHBvaW50cz0iMS40OCwyLjkzIDIuMzksMi45MyAyLjM5LDIuMDIgMS40OCwyLjAyIDEuNDgsMi45MyIvPjxwb2x5bGluZSBzdHJva2Utd2lkdGg9IjAuMjMiIHN0cm9rZT0iI2E2YzRkMSIgZmlsbC1ydWxlPSJldmVub2RkIiBmaWxsPSIjZDllZGY1IiBwb2ludHM9IjEuNDgsNC43NCAyLjM5LDQuNzQgMi4zOSwzLjgzIDEuNDgsMy44MyAxLjQ4LDQuNzQiLz48cG9seWxpbmUgc3Ryb2tlLXdpZHRoPSIwLjIzIiBzdHJva2U9IiNhNmM0ZDEiIGZpbGwtcnVsZT0iZXZlbm9kZCIgZmlsbD0iI2Q5ZWRmNSIgcG9pbnRzPSIxLjQ4LDYuNTUgMi4zOSw2LjU1IDIuMzksNS42NCAxLjQ4LDUuNjQgMS40OCw2LjU1Ii8+PHBvbHlsaW5lIHN0cm9rZS13aWR0aD0iMC4yMyIgc3Ryb2tlPSIjYTZjNGQxIiBmaWxsLXJ1bGU9ImV2ZW5vZGQiIGZpbGw9IiNkOWVkZjUiIHBvaW50cz0iMS40OCw1LjY0IDIuMzksNS42NCAyLjM5LDQuNzQgMS40OCw0Ljc0IDEuNDgsNS42NCIvPjxwb2x5bGluZSBzdHJva2Utd2lkdGg9IjAuMjMiIHN0cm9rZT0iI2E2YzRkMSIgZmlsbC1ydWxlPSJldmVub2RkIiBmaWxsPSIjZDllZGY1IiBwb2ludHM9IjEuNDgsNy40NiAyLjM5LDcuNDYgMi4zOSw2LjU1IDEuNDgsNi41NSAxLjQ4LDcuNDYiLz48cmVjdCBzdHJva2Utd2lkdGg9IjAiIGZpbGw9IiNkOWU2ZWIiIHRyYW5zZm9ybT0ibWF0cml4KDEuNDcxOTQ3IDAgMCAxLjI3MjkyIDQuMDA5MTcgNS40NikiIHJ5PSIwIiByeD0iMCIgaGVpZ2h0PSI3LjQ2MzEzIiB3aWR0aD0iNC4xMTU0MSIvPjxnIHRyYW5zZm9ybT0ibWF0cml4KC40MzIxNzMgMCAwIDAuNDMxMzEgMS4xNDA0NTcgMTguNzUzMTk4KSI+PHBhdGggc3Ryb2tlLXdpZHRoPSIwLjM3IiBzdHJva2U9IiMwMDU1N2MiIGZpbGw9Im5vbmUiIHRyYW5zZm9ybT0idHJhbnNsYXRlKC0zNzkuNDItMTU2Ljc5KSIgZD0iTTM4NC4xOCwxNjQuNDFjLS41NDMwMjQuMDk2NzY3LS45Mzg4NzguNTY4NDIzLS45NCwxLjEydjYuMjZjLjAwMTEyMi41NTE1NzcuMzk2OTc2LDEuMDIzMjMzLjk0LDEuMTJsMi4yNy40Yy4zMzA3NjEuMDU5NDg5LjY3MDgzOC0uMDMxMzMyLjkyNzkwMS0uMjQ3ODA2cy40MDQ0MzItLjUzNjEzNC40MDIwOTktLjg3MjE5NHYtNy4wNmMuMDAyMzMzLS4zMzYwNi0uMTQ1MDM3LS42NTU3MjEtLjQwMjA5OS0uODcyMTk0cy0uNTk3MTQtLjMwNzI5NS0uOTI3OTAxLS4yNDc4MDZsLTIuMjcuNFoiLz48cG9seWdvbiBzdHJva2Utd2lkdGg9IjAuMzciIHN0cm9rZT0iIzAwNTU3YyIgZmlsbD0ibm9uZSIgdHJhbnNmb3JtPSJ0cmFuc2xhdGUoMC00KSIgcG9pbnRzPSI2LjgxLDIxLjcxIDUuMzcsMjEuNzEgNC42NSwyMi45NiA1LjM3LDI0LjIxIDYuODEsMjQuMjEgNy41NCwyMi45NiA2LjgxLDIxLjcxIi8+PHBhdGggc3Ryb2tlLXdpZHRoPSIwLjM3IiBzdHJva2U9IiMwMDU1N2MiIGZpbGw9Im5vbmUiIHRyYW5zZm9ybT0idHJhbnNsYXRlKC0zNzkuNDItMTU2Ljc5KSIgZD0iTTM4NiwxNzUuNzVjMC0uMjkyNzExLS4yMzcyODktLjUzLS41My0uNTMtLjEzOTY2My0uMDAwMDI2LS4yNzM0NjUuMDU2MTMtLjM3MTI3Ny4xNTU4MjNzLS4xNTE0MDkuMjM0NTQtLjE0ODcyMy4zNzQxNzdjMCwuMjg3MTg4LjIzMjgxMi41Mi41Mi41Mi4xMzk2MzcuMDAyNjg2LjI3NDQ4NS0uMDUwOTEyLjM3NDE3Ny0uMTQ4NzIzcy4xNTU4NDktLjIzMTYxNC4xNTU4MjMtLjM3MTI3N1oiLz48cG9seWdvbiBzdHJva2Utd2lkdGg9IjAuMzciIHN0cm9rZT0iIzAwNTU3YyIgZmlsbD0ibm9uZSIgdHJhbnNmb3JtPSJ0cmFuc2xhdGUoMC00KSIgcG9pbnRzPSI2LjgxLDcuNTQgNS4zNyw3LjU0IDQuNjUsOC43OSA1LjM3LDEwLjA0IDYuODEsMTAuMDQgNy41NCw4Ljc5IDYuODEsNy41NCIvPjxwYXRoIHN0cm9rZS13aWR0aD0iMC4zNyIgc3Ryb2tlPSIjMDA1NTdjIiBmaWxsPSJub25lIiB0cmFuc2Zvcm09InRyYW5zbGF0ZSgtMzc5LjQyLTE1Ni43OSkiIGQ9Ik0zODYsMTYxLjU4YzAtLjI5MjcxMS0uMjM3Mjg5LS41My0uNTMtLjUzLS4yMTIyMTYuMDc0NjA4LS4zNTQyMTYuMjc1MDUxLS4zNTQyMTYuNXMuMTQyLjQyNTM5Mi4zNTQyMTYuNWMuMjcwNzk1LjAwMTc0LjQ5OTM0OS0uMjAwOTM5LjUzLS40N1oiLz48cmVjdCBzdHJva2Utd2lkdGg9IjAuNSIgc3Ryb2tlPSIjMDA1NTdjIiBmaWxsPSJub25lIiB0cmFuc2Zvcm09Im1hdHJpeCgyLjA4NTIzNCAwIDAgMi4yNjc0NzEgMS45ODg4ODggMS43MzE0NzQpIiByeT0iMCIgcng9IjAiIGhlaWdodD0iOC45NDY5ODciIHdpZHRoPSI0LjE2NSIvPjwvZz48ZyB0cmFuc2Zvcm09Im1hdHJpeCguNDMyMTczIDAgMCAwLjQzMTMxIDUuODkwNDU3IDE4Ljc1MzE5OCkiPjxwYXRoIHN0cm9rZS13aWR0aD0iMC4zNyIgc3Ryb2tlPSIjMDA1NTdjIiBmaWxsPSJub25lIiB0cmFuc2Zvcm09InRyYW5zbGF0ZSgtMzc5LjQyLTE1Ni43OSkiIGQ9Ik0zODQuMTgsMTY0LjQxYy0uNTQzMDI0LjA5Njc2Ny0uOTM4ODc4LjU2ODQyMy0uOTQsMS4xMnY2LjI2Yy4wMDExMjIuNTUxNTc3LjM5Njk3NiwxLjAyMzIzMy45NCwxLjEybDIuMjcuNGMuMzMwNzYxLjA1OTQ4OS42NzA4MzgtLjAzMTMzMi45Mjc5MDEtLjI0NzgwNnMuNDA0NDMyLS41MzYxMzQuNDAyMDk5LS44NzIxOTR2LTcuMDZjLjAwMjMzMy0uMzM2MDYtLjE0NTAzNy0uNjU1NzIxLS40MDIwOTktLjg3MjE5NHMtLjU5NzE0LS4zMDcyOTUtLjkyNzkwMS0uMjQ3ODA2bC0yLjI3LjRaIi8+PHBvbHlnb24gc3Ryb2tlLXdpZHRoPSIwLjM3IiBzdHJva2U9IiMwMDU1N2MiIGZpbGw9Im5vbmUiIHRyYW5zZm9ybT0idHJhbnNsYXRlKDAtNCkiIHBvaW50cz0iNi44MSwyMS43MSA1LjM3LDIxLjcxIDQuNjUsMjIuOTYgNS4zNywyNC4yMSA2LjgxLDI0LjIxIDcuNTQsMjIuOTYgNi44MSwyMS43MSIvPjxwYXRoIHN0cm9rZS13aWR0aD0iMC4zNyIgc3Ryb2tlPSIjMDA1NTdjIiBmaWxsPSJub25lIiB0cmFuc2Zvcm09InRyYW5zbGF0ZSgtMzc5LjQyLTE1Ni43OSkiIGQ9Ik0zODYsMTc1Ljc1YzAtLjI5MjcxMS0uMjM3Mjg5LS41My0uNTMtLjUzLS4xMzk2NjMtLjAwMDAyNi0uMjczNDY1LjA1NjEzLS4zNzEyNzcuMTU1ODIzcy0uMTUxNDA5LjIzNDU0LS4xNDg3MjMuMzc0MTc3YzAsLjI4NzE4OC4yMzI4MTIuNTIuNTIuNTIuMTM5NjM3LjAwMjY4Ni4yNzQ0ODUtLjA1MDkxMi4zNzQxNzctLjE0ODcyM3MuMTU1ODQ5LS4yMzE2MTQuMTU1ODIzLS4zNzEyNzdaIi8+PHBvbHlnb24gc3Ryb2tlLXdpZHRoPSIwLjM3IiBzdHJva2U9IiMwMDU1N2MiIGZpbGw9Im5vbmUiIHRyYW5zZm9ybT0idHJhbnNsYXRlKDAtNCkiIHBvaW50cz0iNi44MSw3LjU0IDUuMzcsNy41NCA0LjY1LDguNzkgNS4zNywxMC4wNCA2LjgxLDEwLjA0IDcuNTQsOC43OSA2LjgxLDcuNTQiLz48cGF0aCBzdHJva2Utd2lkdGg9IjAuMzciIHN0cm9rZT0iIzAwNTU3YyIgZmlsbD0ibm9uZSIgdHJhbnNmb3JtPSJ0cmFuc2xhdGUoLTM3OS40Mi0xNTYuNzkpIiBkPSJNMzg2LDE2MS41OGMwLS4yOTI3MTEtLjIzNzI4OS0uNTMtLjUzLS41My0uMjEyMjE2LjA3NDYwOC0uMzU0MjE2LjI3NTA1MS0uMzU0MjE2LjVzLjE0Mi40MjUzOTIuMzU0MjE2LjVjLjI3MDc5NS4wMDE3NC40OTkzNDktLjIwMDkzOS41My0uNDdaIi8+PHJlY3Qgc3Ryb2tlLXdpZHRoPSIwLjUiIHN0cm9rZT0iIzAwNTU3YyIgZmlsbD0ibm9uZSIgdHJhbnNmb3JtPSJtYXRyaXgoMi4wODUyMzQgMCAwIDIuMjY3NDcxIDEuOTg4ODg4IDEuNzMxNDc0KSIgcnk9IjAiIHJ4PSIwIiBoZWlnaHQ9IjguOTQ2OTg3IiB3aWR0aD0iNC4xNjUiLz48L2c+PC9nPjwvc3ZnPg==;points=[[0.25,0,0,0,0],[0.25,1,0,0,0],[0.75,0,0,0,0],[0.75,1,0,0,0]];" vertex="1" parent="1">
          <mxGeometry x="500" y="396" width="20.73" height="59" as="geometry" />
        </mxCell>
        <mxCell id="hCn8fclELVwR4EzlVGi--8" value="Text" style="text;html=1;strokeColor=none;fillColor=none;align=center;verticalAlign=middle;whiteSpace=wrap;rounded=0;points=[];" vertex="1" parent="1">
          <mxGeometry x="440" y="396" width="60" height="20" as="geometry" />
        </mxCell>
        <mxCell id="hCn8fclELVwR4EzlVGi--9" value="DP x / DP x" style="text;html=1;strokeColor=none;fillColor=none;align=center;verticalAlign=middle;whiteSpace=wrap;rounded=0;fontSize=7;points=[];" vertex="1" parent="1">
          <mxGeometry x="440" y="426" width="60" height="10" as="geometry" />
        </mxCell>
        <mxCell id="hCn8fclELVwR4EzlVGi--10" value="DP/DP Coupler" style="text;html=1;strokeColor=none;fillColor=none;align=center;verticalAlign=middle;whiteSpace=wrap;rounded=0;fontSize=7;points=[];" vertex="1" parent="1">
          <mxGeometry x="440" y="416" width="60" height="10" as="geometry" />
        </mxCell>
        <mxCell id="hCn8fclELVwR4EzlVGi--11" value="I" style="text;html=1;align=center;verticalAlign=middle;whiteSpace=wrap;rounded=0;fontSize=6;fillColor=default;points=[];" vertex="1" parent="1">
          <mxGeometry x="512.5" y="390" width="6" height="6" as="geometry" />
        </mxCell>
        <mxCell id="hCn8fclELVwR4EzlVGi--12" value="O" style="text;html=1;align=center;verticalAlign=middle;whiteSpace=wrap;rounded=0;fontSize=6;fillColor=default;points=[];" vertex="1" parent="1">
          <mxGeometry x="512.5" y="455" width="6" height="6" as="geometry" />
        </mxCell>
        <mxCell id="hCn8fclELVwR4EzlVGi--13" value="I" style="text;html=1;align=center;verticalAlign=middle;whiteSpace=wrap;rounded=0;fontSize=6;fillColor=default;points=[];" vertex="1" parent="1">
          <mxGeometry x="502.5" y="390" width="6" height="6" as="geometry" />
        </mxCell>
        <mxCell id="hCn8fclELVwR4EzlVGi--14" value="O" style="text;html=1;align=center;verticalAlign=middle;whiteSpace=wrap;rounded=0;fontSize=6;fillColor=default;points=[];" vertex="1" parent="1">
          <mxGeometry x="502.5" y="455" width="6" height="6" as="geometry" />
        </mxCell>
        <mxCell id="hCn8fclELVwR4EzlVGi--15" value="" style="shape=image;verticalLabelPosition=bottom;labelBackgroundColor=default;verticalAlign=top;aspect=fixed;imageAspect=0;image=data:image/svg+xml,PHN2ZyB4bWxucz0iaHR0cDovL3d3dy53My5vcmcvMjAwMC9zdmciIHZpZXdCb3g9IjAgMCA0MC41MiA4NC4zOSI+PGRlZnM+PHN0eWxlPi5jbHMtMXtmaWxsOiNhNmM0ZDE7fS5jbHMtMSwuY2xzLTIsLmNscy0ze3N0cm9rZTojMDA1NTdjO30uY2xzLTEsLmNscy0ye3N0cm9rZS13aWR0aDowLjg1cHg7fS5jbHMtMiwuY2xzLTN7ZmlsbDpub25lO30uY2xzLTN7c3Ryb2tlLXdpZHRoOjAuMjNweDt9LmNscy00e2ZpbGw6I2Q5ZWRmNTt9LmNscy01e2ZpbGw6IzAwNTU3Yzt9PC9zdHlsZT48L2RlZnM+PGcgZGF0YS1uYW1lPSJPcmlnaW5hbCIgaWQ9Ik9yaWdpbmFsLTIiPjxyZWN0IGhlaWdodD0iODMuNTQiIHdpZHRoPSIzOS42NyIgeT0iMC40MyIgeD0iMC40MyIgY2xhc3M9ImNscy0xIi8+PHBhdGggdHJhbnNmb3JtPSJ0cmFuc2xhdGUoLTM3Ni41OSAtMTQ0LjkpIiBkPSJNNDE2LjY5LDIyNC4zMkgzOTEuMjdBNjIuMjcsNjIuMjcsMCwwLDEsMzc3LDIyNiIgY2xhc3M9ImNscy0yIi8+PGxpbmUgeTI9IjYuNTUiIHgyPSIzMS4yNCIgeTE9IjAuNDEiIHgxPSIzMS4yNCIgY2xhc3M9ImNscy0zIi8+PGxpbmUgeTI9IjAuNDEiIHgyPSIyNC40IiB5MT0iNi41NSIgeDE9IjI0LjQiIGNsYXNzPSJjbHMtMyIvPjxyZWN0IGhlaWdodD0iNi4xNCIgd2lkdGg9IjI3LjMxIiB5PSIwLjQxIiB4PSI2LjYxIiBjbGFzcz0iY2xzLTMiLz48cmVjdCBoZWlnaHQ9IjEuMjUiIHdpZHRoPSIxLjI1IiB5PSIyLjA2IiB4PSIxMi4yNSIgY2xhc3M9ImNscy00Ii8+PHJlY3QgaGVpZ2h0PSIxLjI1IiB3aWR0aD0iMS4yNSIgeT0iMi4wNiIgeD0iMTQuNTIiIGNsYXNzPSJjbHMtNCIvPjxyZWN0IGhlaWdodD0iMS4yNSIgd2lkdGg9IjEuMjUiIHk9IjIuMDYiIHg9IjE2Ljc5IiBjbGFzcz0iY2xzLTQiLz48cmVjdCBoZWlnaHQ9IjMuOTQiIHdpZHRoPSI3Ljc0IiB5PSIwLjU3IiB4PSIxMS4yOCIgY2xhc3M9ImNscy0zIi8+PHBvbHlnb24gcG9pbnRzPSIyMi44MiA2Ny4xMyAxNy43IDY3LjEzIDE3LjcgNjEuNDQgMTcuMTQgNjEuNDQgMTcuMTQgNjcuNjkgMjMuMzkgNjcuNjkgMjMuMzkgNjEuNDQgMjIuODIgNjEuNDQgMjIuODIgNjcuMTMiIGNsYXNzPSJjbHMtNSIvPjxwb2x5Z29uIHBvaW50cz0iMTcuNyA0OC4zNyAxNy43IDU0LjA1IDE3LjE0IDU0LjA1IDE3LjE0IDQ3LjggMjMuMzkgNDcuOCAyMy4zOSA1NC4wNSAyMi44MiA1NC4wNSAyMi44MiA0OC4zNyAxNy43IDQ4LjM3IiBjbGFzcz0iY2xzLTUiLz48cG9seWdvbiBwb2ludHM9IjE2LjU3IDYwLjMgMTAuODggNjAuMyAxMC44OCA1NS4xOSAxNi41NyA1NS4xOSAxNi41NyA1NC42MiAxMC4zMSA1NC42MiAxMC4zMSA2MC44NyAxNi41NyA2MC44NyAxNi41NyA2MC4zIiBjbGFzcz0iY2xzLTUiLz48cG9seWdvbiBwb2ludHM9IjEyLjg3IDY5LjU3IDEyLjg3IDcwLjE0IDYuNjIgNzAuMTQgNi42MiA2My44OSA3LjE5IDYzLjg5IDcuMTkgNjkuNTcgMTIuODcgNjkuNTciIGNsYXNzPSJjbHMtNSIvPjxwb2x5Z29uIHBvaW50cz0iMzMuMzQgNjMuODkgMzMuMzQgNjkuNTcgMjcuNjUgNjkuNTcgMjcuNjUgNzAuMTQgMzMuOSA3MC4xNCAzMy45IDYzLjg5IDMzLjM0IDYzLjg5IiBjbGFzcz0iY2xzLTUiLz48cG9seWdvbiBwb2ludHM9IjIzLjk2IDYwLjg3IDIzLjk2IDYwLjMgMjkuNjQgNjAuMyAyOS42NCA1NS4xOSAyMy45NiA1NS4xOSAyMy45NiA1NC42MiAzMC4yMSA1NC42MiAzMC4yMSA2MC44NyAyMy45NiA2MC44NyIgY2xhc3M9ImNscy01Ii8+PHJlY3QgaGVpZ2h0PSI2My42MyIgd2lkdGg9IjMzLjMzIiB5PSI4LjY1IiB4PSIzLjU5IiBjbGFzcz0iY2xzLTMiLz48cmVjdCBoZWlnaHQ9IjIuNjEiIHdpZHRoPSI5LjgzIiB5PSI5LjM5IiB4PSI4Ljg3IiBjbGFzcz0iY2xzLTUiLz48cmVjdCBoZWlnaHQ9IjM3LjczIiB3aWR0aD0iMjcuMjgiIHk9IjguNjUiIHg9IjYuNjIiIGNsYXNzPSJjbHMtMyIvPjxyZWN0IGhlaWdodD0iMjkuMDgiIHdpZHRoPSIyMi43OSIgeT0iMTQuNTEiIHg9IjguODciIGNsYXNzPSJjbHMtNCIvPjwvZz48L3N2Zz4=;points=[[0.24,1,0,0,0],[0.25,0,0,0,0],[0.75,0,0,0,0],[0.76,1,0,0,0]];" vertex="1" parent="1">
          <mxGeometry x="288.5" y="536" width="41" height="84" as="geometry" />
        </mxCell>
        <mxCell id="hCn8fclELVwR4EzlVGi--16" value="Text" style="text;html=1;strokeColor=none;fillColor=none;align=center;verticalAlign=middle;whiteSpace=wrap;rounded=0;points=[];" vertex="1" parent="1">
          <mxGeometry x="210" y="552" width="80" height="25" as="geometry" />
        </mxCell>
        <mxCell id="hCn8fclELVwR4EzlVGi--17" value="DP x" style="text;html=1;strokeColor=none;fillColor=none;align=center;verticalAlign=middle;whiteSpace=wrap;rounded=0;fontSize=9;points=[];" vertex="1" parent="1">
          <mxGeometry x="210" y="587" width="80" height="10" as="geometry" />
        </mxCell>
        <mxCell id="hCn8fclELVwR4EzlVGi--18" value="S7-1500" style="text;html=1;strokeColor=none;fillColor=none;align=center;verticalAlign=middle;whiteSpace=wrap;rounded=0;fontSize=9;points=[];" vertex="1" parent="1">
          <mxGeometry x="210" y="577" width="80" height="10" as="geometry" />
        </mxCell>
        <mxCell id="hCn8fclELVwR4EzlVGi--19" value="IE x" style="text;html=1;strokeColor=none;fillColor=none;align=center;verticalAlign=middle;whiteSpace=wrap;rounded=0;fontSize=9;points=[];" vertex="1" parent="1">
          <mxGeometry x="210" y="597" width="80" height="10" as="geometry" />
        </mxCell>
        <mxCell id="hCn8fclELVwR4EzlVGi--20" value="I" style="text;html=1;align=center;verticalAlign=middle;whiteSpace=wrap;rounded=0;fontSize=6;fillColor=default;points=[];" vertex="1" parent="1">
          <mxGeometry x="315.5" y="530" width="6" height="6" as="geometry" />
        </mxCell>
        <mxCell id="hCn8fclELVwR4EzlVGi--21" value="O" style="text;html=1;align=center;verticalAlign=middle;whiteSpace=wrap;rounded=0;fontSize=6;fillColor=default;points=[];" vertex="1" parent="1">
          <mxGeometry x="316.5" y="620" width="6" height="6" as="geometry" />
        </mxCell>
        <mxCell id="hCn8fclELVwR4EzlVGi--22" value="IE" style="text;html=1;align=center;verticalAlign=middle;whiteSpace=wrap;rounded=0;fontSize=6;fillColor=default;points=[];" vertex="1" parent="1">
          <mxGeometry x="295.5" y="530" width="6" height="6" as="geometry" />
        </mxCell>
        <mxCell id="hCn8fclELVwR4EzlVGi--23" value="IE" style="text;html=1;align=center;verticalAlign=middle;whiteSpace=wrap;rounded=0;fontSize=6;fillColor=default;points=[];" vertex="1" parent="1">
          <mxGeometry x="295.5" y="620" width="6" height="6" as="geometry" />
        </mxCell>
        <mxCell id="hCn8fclELVwR4EzlVGi--24" value="" style="shape=image;verticalLabelPosition=bottom;labelBackgroundColor=default;verticalAlign=top;aspect=fixed;imageAspect=0;image=data:image/svg+xml,PHN2ZyB4bWxucz0iaHR0cDovL3d3dy53My5vcmcvMjAwMC9zdmciIHZpZXdCb3g9IjAgMCAxNC45NyA4My4xNSI+PGRlZnM+PHN0eWxlPi5jbHMtMSwuY2xzLTR7ZmlsbDojYTZjNGQxO30uY2xzLTJ7ZmlsbDojMDA1NTdjO30uY2xzLTN7ZmlsbDojZmZlZDAwO30uY2xzLTMsLmNscy00LC5jbHMtNntmaWxsLXJ1bGU6ZXZlbm9kZDt9LmNscy01LC5jbHMtNiwuY2xzLTd7ZmlsbDpub25lO3N0cm9rZTojMDA1NTdjO3N0cm9rZS13aWR0aDowLjIzcHg7fS5jbHMtNiwuY2xzLTd7c3Ryb2tlLW1pdGVybGltaXQ6My44Njt9LmNscy04e2ZpbGw6I2Q5ZWRmNTt9PC9zdHlsZT48L2RlZnM+PGcgZGF0YS1uYW1lPSJPcmlnaW5hbCIgaWQ9Ik9yaWdpbmFsLTIiPjxyZWN0IGhlaWdodD0iODIuMyIgd2lkdGg9IjE0LjEyIiB5PSIwLjQzIiB4PSIwLjQzIiBjbGFzcz0iY2xzLTEiLz48cGF0aCB0cmFuc2Zvcm09InRyYW5zbGF0ZSgtMzg5LjM3IC0xNDUuNTEpIiBkPSJNNDA0LjMzLDIyOC42NmgtMTVWMTQ1LjUxaDE1Wm0tMTQuMTEtLjg1aDEzLjI2VjE0Ni4zNkgzOTAuMjJaIiBjbGFzcz0iY2xzLTIiLz48cmVjdCBoZWlnaHQ9IjAuMjMiIHdpZHRoPSIxNC4xMSIgeT0iMzYuMzYiIHg9IjAuMzUiIGNsYXNzPSJjbHMtMiIvPjxyZWN0IGhlaWdodD0iMC4yMyIgd2lkdGg9IjE0LjEzIiB5PSI0LjU1IiB4PSIwLjQyIiBjbGFzcz0iY2xzLTIiLz48bGluZSB5Mj0iMC40MyIgeDI9IjE0LjU0IiB5MT0iODIuNjQiIHgxPSIxNC41NCIgY2xhc3M9ImNscy0xIi8+PHJlY3QgaGVpZ2h0PSI4Mi4yMiIgd2lkdGg9IjAuODUiIHk9IjAuNDMiIHg9IjE0LjEyIiBjbGFzcz0iY2xzLTIiLz48bGluZSB5Mj0iMC40MyIgeDI9IjE0LjU0IiB5MT0iODIuNjQiIHgxPSIxNC41NCIgY2xhc3M9ImNscy0xIi8+PHJlY3QgaGVpZ2h0PSI4Mi4yMiIgd2lkdGg9IjAuODUiIHk9IjAuNDMiIHg9IjE0LjEyIiBjbGFzcz0iY2xzLTIiLz48cGF0aCB0cmFuc2Zvcm09InRyYW5zbGF0ZSgtMzg5LjM3IC0xNDUuNTEpIiBkPSJNMzk5LjI1LDE4OSIgY2xhc3M9ImNscy0zIi8+PHBhdGggdHJhbnNmb3JtPSJ0cmFuc2xhdGUoLTM4OS4zNyAtMTQ1LjUxKSIgZD0iTTM5OS44NCwxODYuMjQiIGNsYXNzPSJjbHMtNCIvPjxwYXRoIHRyYW5zZm9ybT0idHJhbnNsYXRlKC0zODkuMzcgLTE0NS41MSkiIGQ9Ik0zOTkuODQsMTg2LjI0IiBjbGFzcz0iY2xzLTUiLz48cGF0aCB0cmFuc2Zvcm09InRyYW5zbGF0ZSgtMzg5LjM3IC0xNDUuNTEpIiBkPSJNNDAyLjc5LDIxNy4wNUgzOTcuNnYtMTZoNS4xOVptLTUtLjIyaDQuNzNWMjAxLjI5aC00LjczWiIgY2xhc3M9ImNscy0yIi8+PHBhdGggdHJhbnNmb3JtPSJ0cmFuc2xhdGUoLTM4OS4zNyAtMTQ1LjUxKSIgZD0iTTQwMC4yLDIwMy4xOCIgY2xhc3M9ImNscy00Ii8+PHBhdGggdHJhbnNmb3JtPSJ0cmFuc2xhdGUoLTM4OS4zNyAtMTQ1LjUxKSIgZD0iTTQwMC4yLDIwMy4xOCIgY2xhc3M9ImNscy01Ii8+PHBhdGggdHJhbnNmb3JtPSJ0cmFuc2xhdGUoLTM4OS4zNyAtMTQ1LjUxKSIgZD0iTTM5Ni4xLDIwOC41NGgtNS4xOXYtNy40OGg1LjE5Wm0tNS0uMjNoNC43M3YtN2gtNC43M1oiIGNsYXNzPSJjbHMtMiIvPjxwYXRoIHRyYW5zZm9ybT0idHJhbnNsYXRlKC0zODkuMzcgLTE0NS41MSkiIGQ9Ik0zOTMuNTEsMjA0Ljc5IiBjbGFzcz0iY2xzLTQiLz48cGF0aCB0cmFuc2Zvcm09InRyYW5zbGF0ZSgtMzg5LjM3IC0xNDUuNTEpIiBkPSJNMzkzLjUxLDIwNC43OSIgY2xhc3M9ImNscy01Ii8+PHBhdGggdHJhbnNmb3JtPSJ0cmFuc2xhdGUoLTM4OS4zNyAtMTQ1LjUxKSIgZD0iTTM5Ni4xLDIxN2gtNS4xOXYtNy40OGg1LjE5Wm0tNS0uMjNoNC43M3YtN2gtNC43M1oiIGNsYXNzPSJjbHMtMiIvPjxwYXRoIHRyYW5zZm9ybT0idHJhbnNsYXRlKC0zODkuMzcgLTE0NS41MSkiIGQ9Ik0zOTMuNTEsMjEzLjMiIGNsYXNzPSJjbHMtNCIvPjxwYXRoIHRyYW5zZm9ybT0idHJhbnNsYXRlKC0zODkuMzcgLTE0NS41MSkiIGQ9Ik0zOTMuNTEsMjEzLjMiIGNsYXNzPSJjbHMtNSIvPjxwYXRoIHRyYW5zZm9ybT0idHJhbnNsYXRlKC0zODkuMzcgLTE0NS41MSkiIGQ9Ik00MDAuMiwyMTAuNjYiIGNsYXNzPSJjbHMtNCIvPjxwYXRoIHRyYW5zZm9ybT0idHJhbnNsYXRlKC0zODkuMzcgLTE0NS41MSkiIGQ9Ik00MDAuMiwyMTAuNjYiIGNsYXNzPSJjbHMtNSIvPjxwYXRoIHRyYW5zZm9ybT0idHJhbnNsYXRlKC0zODkuMzcgLTE0NS41MSkiIGQ9Ik00MDIuNzksMTk5LjhIMzk3LjZ2LTE2aDUuMTlabS01LS4yMmg0LjczVjE4NGgtNC43M1oiIGNsYXNzPSJjbHMtMiIvPjxwYXRoIHRyYW5zZm9ybT0idHJhbnNsYXRlKC0zODkuMzcgLTE0NS41MSkiIGQ9Ik00MDAuMiwxODUuOTMiIGNsYXNzPSJjbHMtNCIvPjxwYXRoIHRyYW5zZm9ybT0idHJhbnNsYXRlKC0zODkuMzcgLTE0NS41MSkiIGQ9Ik00MDAuMiwxODUuOTMiIGNsYXNzPSJjbHMtNSIvPjxwYXRoIHRyYW5zZm9ybT0idHJhbnNsYXRlKC0zODkuMzcgLTE0NS41MSkiIGQ9Ik00MDAuMiwxOTMuNDEiIGNsYXNzPSJjbHMtNCIvPjxwYXRoIHRyYW5zZm9ybT0idHJhbnNsYXRlKC0zODkuMzcgLTE0NS41MSkiIGQ9Ik00MDAuMiwxOTMuNDEiIGNsYXNzPSJjbHMtNSIvPjxwYXRoIHRyYW5zZm9ybT0idHJhbnNsYXRlKC0zODkuMzcgLTE0NS41MSkiIGQ9Ik0zOTMuMTIsMTc5Ljc1YS4zNi4zNiwwLDAsMS0uMzYuMzYuMzYuMzYsMCwxLDEsMC0uNzFBLjM2LjM2LDAsMCwxLDM5My4xMiwxNzkuNzVaIiBjbGFzcz0iY2xzLTYiLz48cmVjdCBoZWlnaHQ9IjIuMSIgd2lkdGg9IjIuMSIgeT0iNzMuNiIgeD0iMy4zIiBjbGFzcz0iY2xzLTciLz48cGF0aCB0cmFuc2Zvcm09InRyYW5zbGF0ZSgtMzg5LjM3IC0xNDUuNTEpIiBkPSJNMzkzLjU1LDE4OS41NGEuNDkuNDksMCwxLDAtLjczLjQzQS40OS40OSwwLDAsMCwzOTMuNTUsMTg5LjU0WiIgY2xhc3M9ImNscy02Ii8+PHBhdGggdHJhbnNmb3JtPSJ0cmFuc2xhdGUoLTM4OS4zNyAtMTQ1LjUxKSIgZD0iTTM5My41NSwxODNhLjQ5LjQ5LDAsMSwwLS43My40MkEuNDkuNDksMCwwLDAsMzkzLjU1LDE4M1oiIGNsYXNzPSJjbHMtNiIvPjxwb2x5Z29uIHBvaW50cz0iNC44NiA0Mi43NiA0LjgzIDQzLjA5IDQuNjYgNDMuMjYgNC4zNyA0My4yNiAyLjY1IDQyLjc5IDIuNTMgNDIuNTQgMi41NCAzOC45MyAyLjU4IDM4Ljg5IDIuNjcgMzguNzUgNC40NCAzOC4zIDQuNyAzOC4zMyA0Ljg0IDM4LjUzIDQuODYgNDIuNzYiIGNsYXNzPSJjbHMtNiIvPjxyZWN0IGhlaWdodD0iMC42NyIgd2lkdGg9IjAuNjgiIHk9IjkuNDEiIHg9IjMuMDMiIGNsYXNzPSJjbHMtOCIvPjxyZWN0IGhlaWdodD0iMC42OCIgd2lkdGg9IjAuNjgiIHk9IjguNSIgeD0iMy4wMyIgY2xhc3M9ImNscy04Ii8+PHJlY3QgaGVpZ2h0PSIwLjY4IiB3aWR0aD0iMC42OCIgeT0iMTAuMyIgeD0iMy4wMyIgY2xhc3M9ImNscy04Ii8+PHJlY3QgaGVpZ2h0PSIwLjY4IiB3aWR0aD0iMC42OCIgeT0iMTIuMTIiIHg9IjMuMDMiIGNsYXNzPSJjbHMtOCIvPjxyZWN0IGhlaWdodD0iMC42OCIgd2lkdGg9IjAuNjgiIHk9IjExLjIxIiB4PSIzLjAzIiBjbGFzcz0iY2xzLTgiLz48cmVjdCBoZWlnaHQ9IjAuNjgiIHdpZHRoPSIwLjY4IiB5PSIxMy4wMyIgeD0iMy4wMyIgY2xhc3M9ImNscy04Ii8+PHJlY3QgaGVpZ2h0PSIwLjciIHdpZHRoPSIwLjY4IiB5PSIxMy45NCIgeD0iMy4wMyIgY2xhc3M9ImNscy04Ii8+PHJlY3QgaGVpZ2h0PSIwLjY1IiB3aWR0aD0iMC42OCIgeT0iMTQuODUiIHg9IjMuMDMiIGNsYXNzPSJjbHMtOCIvPjxyZWN0IGhlaWdodD0iMC42NyIgd2lkdGg9IjAuNjgiIHk9IjE1Ljc2IiB4PSIzLjAzIiBjbGFzcz0iY2xzLTgiLz48cmVjdCBoZWlnaHQ9IjAuNjgiIHdpZHRoPSIwLjY4IiB5PSIxNi42NSIgeD0iMy4wMyIgY2xhc3M9ImNscy04Ii8+PHJlY3QgaGVpZ2h0PSIwLjcyIiB3aWR0aD0iMC42OCIgeT0iMTcuNTYiIHg9IjMuMDMiIGNsYXNzPSJjbHMtOCIvPjxyZWN0IGhlaWdodD0iMC42NSIgd2lkdGg9IjAuNjgiIHk9IjE4LjQ3IiB4PSIzLjAzIiBjbGFzcz0iY2xzLTgiLz48cmVjdCBoZWlnaHQ9IjAuNjgiIHdpZHRoPSIwLjY4IiB5PSIxOS4zOCIgeD0iMy4wMyIgY2xhc3M9ImNscy04Ii8+PHJlY3QgaGVpZ2h0PSIwLjY3IiB3aWR0aD0iMC42OCIgeT0iMjAuMjkiIHg9IjMuMDMiIGNsYXNzPSJjbHMtOCIvPjxyZWN0IGhlaWdodD0iMC42OCIgd2lkdGg9IjAuNjgiIHk9IjIxLjE4IiB4PSIzLjAzIiBjbGFzcz0iY2xzLTgiLz48cmVjdCBoZWlnaHQ9IjAuNzIiIHdpZHRoPSIwLjY4IiB5PSIyMi4wOSIgeD0iMy4wMyIgY2xhc3M9ImNscy04Ii8+PHJlY3QgaGVpZ2h0PSIwLjY1IiB3aWR0aD0iMC42OCIgeT0iMjMiIHg9IjMuMDMiIGNsYXNzPSJjbHMtOCIvPjxyZWN0IGhlaWdodD0iMC42OCIgd2lkdGg9IjAuNjgiIHk9IjI1Ljk1IiB4PSIzLjAzIiBjbGFzcz0iY2xzLTgiLz48cmVjdCBoZWlnaHQ9IjAuNjgiIHdpZHRoPSIwLjY4IiB5PSIyNy43NyIgeD0iMy4wMyIgY2xhc3M9ImNscy04Ii8+PHJlY3QgaGVpZ2h0PSIwLjY4IiB3aWR0aD0iMC42OCIgeT0iMjYuODYiIHg9IjMuMDMiIGNsYXNzPSJjbHMtOCIvPjxyZWN0IGhlaWdodD0iMC42OCIgd2lkdGg9IjAuNjgiIHk9IjI4LjY4IiB4PSIzLjAzIiBjbGFzcz0iY2xzLTgiLz48cmVjdCBoZWlnaHQ9IjAuNyIgd2lkdGg9IjAuNjgiIHk9IjI5LjU4IiB4PSIzLjAzIiBjbGFzcz0iY2xzLTgiLz48cmVjdCBoZWlnaHQ9IjAuNjciIHdpZHRoPSIwLjY4IiB5PSI1MS4wOCIgeD0iMy44IiBjbGFzcz0iY2xzLTgiLz48cmVjdCBoZWlnaHQ9IjAuNjgiIHdpZHRoPSIwLjY4IiB5PSI1MC4xNyIgeD0iMy44IiBjbGFzcz0iY2xzLTgiLz48L2c+PC9zdmc+;points=[[0.25,0,0,0,0],[0.25,1,0,0,0],[0.75,0,0,0,0],[0.75,1,0,0,0]];" vertex="1" parent="1">
          <mxGeometry x="669" y="626" width="15" height="83" as="geometry" />
        </mxCell>
        <mxCell id="hCn8fclELVwR4EzlVGi--25" value="Text" style="text;html=1;strokeColor=none;fillColor=none;align=center;verticalAlign=middle;whiteSpace=wrap;rounded=0;points=[];" vertex="1" parent="1">
          <mxGeometry x="590" y="628" width="80" height="25" as="geometry" />
        </mxCell>
        <mxCell id="hCn8fclELVwR4EzlVGi--26" value="DP x" style="text;html=1;strokeColor=none;fillColor=none;align=center;verticalAlign=middle;whiteSpace=wrap;rounded=0;fontSize=9;points=[];" vertex="1" parent="1">
          <mxGeometry x="590" y="663" width="80" height="10" as="geometry" />
        </mxCell>
        <mxCell id="hCn8fclELVwR4EzlVGi--27" value="S7-400" style="text;html=1;strokeColor=none;fillColor=none;align=center;verticalAlign=middle;whiteSpace=wrap;rounded=0;fontSize=9;points=[];" vertex="1" parent="1">
          <mxGeometry x="590" y="653" width="80" height="10" as="geometry" />
        </mxCell>
        <mxCell id="hCn8fclELVwR4EzlVGi--28" value="IE x" style="text;html=1;strokeColor=none;fillColor=none;align=center;verticalAlign=middle;whiteSpace=wrap;rounded=0;fontSize=8;points=[];" vertex="1" parent="1">
          <mxGeometry x="590" y="673" width="80" height="10" as="geometry" />
        </mxCell>
        <mxCell id="hCn8fclELVwR4EzlVGi--29" value="I" style="text;html=1;align=center;verticalAlign=middle;whiteSpace=wrap;rounded=0;fontSize=6;fillColor=default;points=[];" vertex="1" parent="1">
          <mxGeometry x="669.5" y="620" width="6" height="6" as="geometry" />
        </mxCell>
        <mxCell id="hCn8fclELVwR4EzlVGi--30" value="O" style="text;html=1;align=center;verticalAlign=middle;whiteSpace=wrap;rounded=0;fontSize=6;fillColor=default;points=[];" vertex="1" parent="1">
          <mxGeometry x="676.5" y="620" width="6" height="6" as="geometry" />
        </mxCell>
        <mxCell id="hCn8fclELVwR4EzlVGi--31" value="DP" style="text;html=1;align=center;verticalAlign=middle;whiteSpace=wrap;rounded=0;fontSize=6;fillColor=default;points=[];" vertex="1" parent="1">
          <mxGeometry x="660.5" y="620" width="6" height="6" as="geometry" />
        </mxCell>
        <mxCell id="hCn8fclELVwR4EzlVGi--32" value="IE" style="text;html=1;align=center;verticalAlign=middle;whiteSpace=wrap;rounded=0;fontSize=6;fillColor=default;points=[];" vertex="1" parent="1">
          <mxGeometry x="660.5" y="709" width="6" height="6" as="geometry" />
        </mxCell>
        <mxCell id="hCn8fclELVwR4EzlVGi--33" value="1" style="text;html=1;align=center;verticalAlign=middle;whiteSpace=wrap;rounded=0;fontSize=6;fillColor=default;points=[];" vertex="1" parent="1">
          <mxGeometry x="669.5" y="709" width="6" height="6" as="geometry" />
        </mxCell>
        <mxCell id="hCn8fclELVwR4EzlVGi--34" value="2" style="text;html=1;align=center;verticalAlign=middle;whiteSpace=wrap;rounded=0;fontSize=6;fillColor=default;points=[];" vertex="1" parent="1">
          <mxGeometry x="677.5" y="709" width="6" height="6" as="geometry" />
        </mxCell>
        <mxCell id="hCn8fclELVwR4EzlVGi--35" value="" style="shape=image;verticalLabelPosition=bottom;labelBackgroundColor=default;verticalAlign=top;aspect=fixed;imageAspect=0;image=data:image/svg+xml,PHN2ZyB4bWxucz0iaHR0cDovL3d3dy53My5vcmcvMjAwMC9zdmciIHZpZXdCb3g9IjAgMCAzNC4zMiA3MS45NCI+PGRlZnM+PHN0eWxlPi5jbHMtMSwuY2xzLTJ7ZmlsbDojYTZjNGQxO30uY2xzLTEsLmNscy0yLC5jbHMtNCwuY2xzLTUsLmNscy02e3N0cm9rZTojMDA1NTdjO30uY2xzLTF7c3Ryb2tlLXdpZHRoOjAuODVweDt9LmNscy0ye3N0cm9rZS13aWR0aDowLjIzcHg7fS5jbHMtM3tmaWxsOiNkOWVkZjU7fS5jbHMtNCwuY2xzLTUsLmNscy02e2ZpbGw6bm9uZTt9LmNscy00LC5jbHMtNXtzdHJva2UtbWl0ZXJsaW1pdDoxO30uY2xzLTR7c3Ryb2tlLXdpZHRoOjAuMjhweDt9LmNscy01LC5jbHMtNntzdHJva2Utd2lkdGg6MC40OHB4O30uY2xzLTd7ZmlsbDojMDA1NTdjO308L3N0eWxlPjwvZGVmcz48ZyBkYXRhLW5hbWU9Ik9yaWdpbmFsIiBpZD0iT3JpZ2luYWwtMiI+PHJlY3QgaGVpZ2h0PSI3MS4wOSIgd2lkdGg9IjMzLjQ3IiB5PSIwLjQzIiB4PSIwLjQzIiBjbGFzcz0iY2xzLTEiLz48bGluZSB5Mj0iMzYuMDQiIHgyPSIzMy45IiB5MT0iMzYuMDQiIHgxPSIwLjQzIiBjbGFzcz0iY2xzLTEiLz48cGF0aCB0cmFuc2Zvcm09InRyYW5zbGF0ZSgtMzc5LjY5IC0xNTEuMTIpIiBkPSJNMzg3LjIyLDIwNWExLjk0LDEuOTQsMCwxLDEsMS45NCwxLjk0QTEuOTQsMS45NCwwLDAsMSwzODcuMjIsMjA1WiIgY2xhc3M9ImNscy0yIi8+PHBhdGggdHJhbnNmb3JtPSJ0cmFuc2xhdGUoLTM3OS42OSAtMTUxLjEyKSIgZD0iTTM4OC4yNiwyMDVhLjkuOSwwLDEsMSwuOS44OUEuOS45LDAsMCwxLDM4OC4yNiwyMDVaIiBjbGFzcz0iY2xzLTMiLz48cmVjdCBoZWlnaHQ9IjEwLjA4IiB3aWR0aD0iMjUuNzUiIHk9IjExLjUxIiB4PSI0LjI5IiBjbGFzcz0iY2xzLTMiLz48cGF0aCB0cmFuc2Zvcm09InRyYW5zbGF0ZSgtMzc5LjY5IC0xNTEuMTIpIiBkPSJNMzg2LjUzLDE3Ny4yYTIuMDUsMi4wNSwwLDEsMSwyLjA1LDIuMDVBMi4wNSwyLjA1LDAsMCwxLDM4Ni41MywxNzcuMloiIGNsYXNzPSJjbHMtNCIvPjxwYXRoIHRyYW5zZm9ybT0idHJhbnNsYXRlKC0zNzkuNjkgLTE1MS4xMikiIGQ9Ik0zODYuNTMsMTgyLjcyYTIuMDUsMi4wNSwwLDEsMSwyLjA1LDIuMDVBMi4wNSwyLjA1LDAsMCwxLDM4Ni41MywxODIuNzJaIiBjbGFzcz0iY2xzLTQiLz48cGF0aCB0cmFuc2Zvcm09InRyYW5zbGF0ZSgtMzc5LjY5IC0xNTEuMTIpIiBkPSJNMzkyLDE3Ny4yYTIsMiwwLDEsMSwyLDIuMDVBMiwyLDAsMCwxLDM5MiwxNzcuMloiIGNsYXNzPSJjbHMtNCIvPjxwYXRoIHRyYW5zZm9ybT0idHJhbnNsYXRlKC0zNzkuNjkgLTE1MS4xMikiIGQ9Ik0zOTIsMTgyLjcyYTIsMiwwLDEsMSwyLDIuMDVBMiwyLDAsMCwxLDM5MiwxODIuNzJaIiBjbGFzcz0iY2xzLTQiLz48cGF0aCB0cmFuc2Zvcm09InRyYW5zbGF0ZSgtMzc5LjY5IC0xNTEuMTIpIiBkPSJNMzk3LjYyLDE3Ny4yYTIuMDUsMi4wNSwwLDEsMSwyLjA1LDIuMDVBMi4wNSwyLjA1LDAsMCwxLDM5Ny42MiwxNzcuMloiIGNsYXNzPSJjbHMtNCIvPjxwYXRoIHRyYW5zZm9ybT0idHJhbnNsYXRlKC0zNzkuNjkgLTE1MS4xMikiIGQ9Ik0zOTcuNjIsMTgyLjcyYTIuMDUsMi4wNSwwLDEsMSwyLjA1LDIuMDVBMi4wNSwyLjA1LDAsMCwxLDM5Ny42MiwxODIuNzJaIiBjbGFzcz0iY2xzLTQiLz48cGF0aCB0cmFuc2Zvcm09InRyYW5zbGF0ZSgtMzc5LjY5IC0xNTEuMTIpIiBkPSJNNDAzLjA3LDE3Ny4yYTIuMDUsMi4wNSwwLDEsMSwyLjA1LDIuMDVBMi4wNSwyLjA1LDAsMCwxLDQwMy4wNywxNzcuMloiIGNsYXNzPSJjbHMtNCIvPjxwYXRoIHRyYW5zZm9ybT0idHJhbnNsYXRlKC0zNzkuNjkgLTE1MS4xMikiIGQ9Ik00MDMuMDcsMTgyLjcyYTIuMDUsMi4wNSwwLDEsMSwyLjA1LDIuMDVBMi4wNSwyLjA1LDAsMCwxLDQwMy4wNywxODIuNzJaIiBjbGFzcz0iY2xzLTQiLz48cmVjdCBoZWlnaHQ9IjM5LjkxIiB3aWR0aD0iMjguOTEiIHk9IjYuNzIiIHg9IjIuNyIgY2xhc3M9ImNscy01Ii8+PHBhdGggdHJhbnNmb3JtPSJ0cmFuc2xhdGUoLTM3OS42OSAtMTUxLjEyKSIgZD0iTTM4Mi40MywxNTcuODVhNjYuNDQsNjYuNDQsMCwwLDEsMjguODUsMCIgY2xhc3M9ImNscy02Ii8+PHBhdGggdHJhbnNmb3JtPSJ0cmFuc2xhdGUoLTM3OS42OSAtMTUxLjEyKSIgZD0iTTM4Mi40MywxOThhNjYuNDIsNjYuNDIsMCwwLDAsMjguODUsMCIgY2xhc3M9ImNscy02Ii8+PHJlY3QgaGVpZ2h0PSIyLjY4IiB3aWR0aD0iMTAuMDkiIHk9IjcuOSIgeD0iMTIuMTIiIGNsYXNzPSJjbHMtNyIvPjwvZz48L3N2Zz4=;points=[[0.25,1,0,0,0],[0.75,1,0,0,0]];" vertex="1" parent="1">
          <mxGeometry x="230" y="190" width="34" height="72" as="geometry" />
        </mxCell>
        <mxCell id="hCn8fclELVwR4EzlVGi--36" value="Text" style="text;html=1;strokeColor=none;fillColor=none;align=center;verticalAlign=middle;whiteSpace=wrap;rounded=0;points=[];" vertex="1" parent="1">
          <mxGeometry x="140" y="190" width="90" height="30" as="geometry" />
        </mxCell>
        <mxCell id="hCn8fclELVwR4EzlVGi--37" value="MICROMASTER" style="text;html=1;strokeColor=none;fillColor=none;align=center;verticalAlign=middle;whiteSpace=wrap;rounded=0;fontSize=10;points=[];" vertex="1" parent="1">
          <mxGeometry x="140" y="220" width="90" height="20" as="geometry" />
        </mxCell>
        <mxCell id="hCn8fclELVwR4EzlVGi--38" value="DP x / IE ADDR" style="text;html=1;strokeColor=none;fillColor=none;align=center;verticalAlign=middle;whiteSpace=wrap;rounded=0;fontSize=10;points=[];" vertex="1" parent="1">
          <mxGeometry x="140" y="240" width="90" height="20" as="geometry" />
        </mxCell>
        <mxCell id="hCn8fclELVwR4EzlVGi--39" value="I" style="text;html=1;align=center;verticalAlign=middle;whiteSpace=wrap;rounded=0;fontSize=6;fillColor=default;points=[];" vertex="1" parent="1">
          <mxGeometry x="235" y="262" width="7.5" height="6" as="geometry" />
        </mxCell>
        <mxCell id="hCn8fclELVwR4EzlVGi--40" value="O" style="text;html=1;align=center;verticalAlign=middle;whiteSpace=wrap;rounded=0;fontSize=6;fillColor=default;points=[];" vertex="1" parent="1">
          <mxGeometry x="251.5" y="262" width="7.5" height="6" as="geometry" />
        </mxCell>
        <mxCell id="hCn8fclELVwR4EzlVGi--41" value="Text" style="text;html=1;strokeColor=none;fillColor=none;align=center;verticalAlign=middle;whiteSpace=wrap;rounded=0;points=[];" vertex="1" parent="1">
          <mxGeometry x="503" y="205" width="100" height="14.5" as="geometry" />
        </mxCell>
        <mxCell id="hCn8fclELVwR4EzlVGi--42" value="OS v." style="text;html=1;strokeColor=none;fillColor=none;align=center;verticalAlign=middle;whiteSpace=wrap;rounded=0;points=[];" vertex="1" parent="1">
          <mxGeometry x="503" y="165" width="100" height="30" as="geometry" />
        </mxCell>
        <mxCell id="hCn8fclELVwR4EzlVGi--43" value="X1: Dynamic" style="text;html=1;strokeColor=none;fillColor=none;align=center;verticalAlign=middle;whiteSpace=wrap;rounded=0;fontSize=10;points=[];" vertex="1" parent="1">
          <mxGeometry x="603" y="169.5" width="80" height="10" as="geometry" />
        </mxCell>
        <mxCell id="hCn8fclELVwR4EzlVGi--44" value="X2: Dynamic" style="text;html=1;strokeColor=none;fillColor=none;align=center;verticalAlign=middle;whiteSpace=wrap;rounded=0;fontSize=10;points=[];" vertex="1" parent="1">
          <mxGeometry x="603" y="179.5" width="80" height="10" as="geometry" />
        </mxCell>
        <mxCell id="hCn8fclELVwR4EzlVGi--45" value="X3: Dynamic" style="text;html=1;strokeColor=none;fillColor=none;align=center;verticalAlign=middle;whiteSpace=wrap;rounded=0;fontSize=10;points=[];" vertex="1" parent="1">
          <mxGeometry x="603" y="189.5" width="80" height="10" as="geometry" />
        </mxCell>
        <mxCell id="hCn8fclELVwR4EzlVGi--46" value="IPC427D" style="text;html=1;strokeColor=none;fillColor=none;align=center;verticalAlign=middle;whiteSpace=wrap;rounded=0;points=[];" vertex="1" parent="1">
          <mxGeometry x="503" y="225" width="100" height="14.5" as="geometry" />
        </mxCell>
        <mxCell id="hCn8fclELVwR4EzlVGi--47" value="" style="shape=image;verticalLabelPosition=bottom;labelBackgroundColor=default;verticalAlign=top;aspect=fixed;imageAspect=0;image=data:image/svg+xml,PHN2ZyB4bWxucz0iaHR0cDovL3d3dy53My5vcmcvMjAwMC9zdmciIHZpZXdCb3g9IjAgMCA3NS4xMiA0MS4wOSI+PGRlZnM+PHN0eWxlPi5jbHMtMXtmaWxsOiNhNmM0ZDE7c3Ryb2tlLXdpZHRoOjAuODVweDt9LmNscy0xLC5jbHMtMiwuY2xzLTMsLmNscy00e3N0cm9rZTojMDA1NTdjO30uY2xzLTEsLmNscy0zLC5jbHMtNHtzdHJva2UtbWl0ZXJsaW1pdDozLjg2O30uY2xzLTIsLmNscy0zLC5jbHMtNHtmaWxsOm5vbmU7fS5jbHMtMntzdHJva2Utd2lkdGg6MC4zN3B4O30uY2xzLTMsLmNscy00e3N0cm9rZS13aWR0aDowLjIzcHg7fS5jbHMtM3tmaWxsLXJ1bGU6ZXZlbm9kZDt9LmNscy01e2ZpbGw6I2Q5ZTZlYjt9LmNscy02e2ZpbGw6IzAwNTU3Yzt9LmNscy03e2ZpbGw6I2Q5ZWRmNTt9PC9zdHlsZT48L2RlZnM+PGcgaWQ9Ik9yaWdpbmFsIj48cmVjdCBoZWlnaHQ9IjM2LjkxIiB3aWR0aD0iNzQuMjciIHk9IjEuMyIgeD0iMC40MyIgY2xhc3M9ImNscy0xIi8+PHJlY3QgaGVpZ2h0PSIwLjc3IiB3aWR0aD0iMS41OSIgeT0iMC40MyIgeD0iNTAuNzgiIGNsYXNzPSJjbHMtMSIvPjxsaW5lIHkyPSIzOC4yMSIgeDI9IjcxLjU3IiB5MT0iMS41MyIgeDE9IjcxLjU3IiBjbGFzcz0iY2xzLTIiLz48bGluZSB5Mj0iMzguMjEiIHgyPSIzMi42OCIgeTE9IjEuNTMiIHgxPSIzMi42OCIgY2xhc3M9ImNscy0yIi8+PGxpbmUgeTI9IjM4LjIxIiB4Mj0iMzAuMzkiIHkxPSIxLjUzIiB4MT0iMzAuMzkiIGNsYXNzPSJjbHMtMiIvPjxsaW5lIHkyPSIzOC4yMSIgeDI9IjMwLjM1IiB5MT0iMS41MyIgeDE9IjMwLjM1IiBjbGFzcz0iY2xzLTIiLz48bGluZSB5Mj0iMzguMjEiIHgyPSIyMS4wMyIgeTE9IjEuNTMiIHgxPSIyMS4wMyIgY2xhc3M9ImNscy0yIi8+PGxpbmUgeTI9IjM4LjIxIiB4Mj0iMTguMjEiIHkxPSIxLjUzIiB4MT0iMTguMjEiIGNsYXNzPSJjbHMtMiIvPjxsaW5lIHkyPSIzOC4yMSIgeDI9IjMuNDEiIHkxPSIxLjUzIiB4MT0iMy40MSIgY2xhc3M9ImNscy0yIi8+PGxpbmUgeTI9IjM4LjIxIiB4Mj0iMy40MSIgeTE9IjEuNTMiIHgxPSIzLjQxIiBjbGFzcz0iY2xzLTIiLz48bGluZSB5Mj0iMzguMjEiIHgyPSIxNC4wOSIgeTE9IjEuNTMiIHgxPSIxNC4wOSIgY2xhc3M9ImNscy0yIi8+PGxpbmUgeTI9IjM4LjIxIiB4Mj0iMTIuOTYiIHkxPSIxLjUzIiB4MT0iMTIuOTYiIGNsYXNzPSJjbHMtMiIvPjxsaW5lIHkyPSIzOC4yMSIgeDI9IjguNTIiIHkxPSIxLjUzIiB4MT0iOC41MiIgY2xhc3M9ImNscy0yIi8+PGxpbmUgeTI9IjM4LjIxIiB4Mj0iNy4zOSIgeTE9IjEuNTMiIHgxPSI3LjM5IiBjbGFzcz0iY2xzLTIiLz48cGF0aCB0cmFuc2Zvcm09InRyYW5zbGF0ZSgtMzU5LjI5IC0xNjYuNTQpIiBkPSJNMzYxLjM0LDE3Mi4xM2ExLDEsMCwxLDAtLjk1LTFBMSwxLDAsMCwwLDM2MS4zNCwxNzIuMTNaIiBjbGFzcz0iY2xzLTMiLz48cGF0aCB0cmFuc2Zvcm09InRyYW5zbGF0ZSgtMzU5LjI5IC0xNjYuNTQpIiBkPSJNMzYxLjM0LDE3MS42NWEuNDguNDgsMCwxLDAtLjQ3LS40OEEuNDguNDgsMCwwLDAsMzYxLjM0LDE3MS42NVoiIGNsYXNzPSJjbHMtNCIvPjxwYXRoIHRyYW5zZm9ybT0idHJhbnNsYXRlKC0zNTkuMjkgLTE2Ni41NCkiIGQ9Ik0zNjEuMzQsMjAyLjU5YTEsMSwwLDEsMC0uOTUtMUExLDEsMCwwLDAsMzYxLjM0LDIwMi41OVoiIGNsYXNzPSJjbHMtMyIvPjxwYXRoIHRyYW5zZm9ybT0idHJhbnNsYXRlKC0zNTkuMjkgLTE2Ni41NCkiIGQ9Ik0zNjEuMzQsMjAyLjExYS40Ny40NywwLDAsMCwuNDgtLjQ4LjQ4LjQ4LDAsMSwwLS45NSwwQS40Ny40NywwLDAsMCwzNjEuMzQsMjAyLjExWiIgY2xhc3M9ImNscy0zIi8+PHBhdGggdHJhbnNmb3JtPSJ0cmFuc2xhdGUoLTM1OS4yOSAtMTY2LjU0KSIgZD0iTTQzMi40MSwxNzIuMTNhMSwxLDAsMSwwLTEtMUExLDEsMCwwLDAsNDMyLjQxLDE3Mi4xM1oiIGNsYXNzPSJjbHMtMyIvPjxwYXRoIHRyYW5zZm9ybT0idHJhbnNsYXRlKC0zNTkuMjkgLTE2Ni41NCkiIGQ9Ik00MzIuNDEsMTcxLjY1YS40OC40OCwwLDEsMCwwLTEsLjQ4LjQ4LDAsMCwwLDAsMVoiIGNsYXNzPSJjbHMtNCIvPjxwYXRoIHRyYW5zZm9ybT0idHJhbnNsYXRlKC0zNTkuMjkgLTE2Ni41NCkiIGQ9Ik00MzIuNDEsMjAyLjU5YTEsMSwwLDEsMC0xLTFBMSwxLDAsMCwwLDQzMi40MSwyMDIuNTlaIiBjbGFzcz0iY2xzLTMiLz48cGF0aCB0cmFuc2Zvcm09InRyYW5zbGF0ZSgtMzU5LjI5IC0xNjYuNTQpIiBkPSJNNDMyLjQxLDIwMi4xMWEuNDguNDgsMCwwLDAsLjQ4LS40OC40OS40OSwwLDAsMC0uNDgtLjQ4LjQ4LjQ4LDAsMCwwLS40OC40OEEuNDcuNDcsMCwwLDAsNDMyLjQxLDIwMi4xMVoiIGNsYXNzPSJjbHMtMyIvPjxyZWN0IGhlaWdodD0iMS41NCIgd2lkdGg9IjEuNTkiIHk9IjM4LjIxIiB4PSIzOC40MSIgY2xhc3M9ImNscy0xIi8+PHJlY3QgaGVpZ2h0PSIxLjU0IiB3aWR0aD0iNi4zMyIgeT0iMzguMjEiIHg9IjQwLjYiIGNsYXNzPSJjbHMtMSIvPjxyZWN0IGhlaWdodD0iMS41NCIgd2lkdGg9IjEuNTkiIHk9IjM4LjIxIiB4PSI0Ny41MiIgY2xhc3M9ImNscy0xIi8+PHJlY3QgaGVpZ2h0PSIxLjU0IiB3aWR0aD0iMS4yOCIgeT0iMzguMjEiIHg9IjUzLjQ4IiBjbGFzcz0iY2xzLTEiLz48cmVjdCBoZWlnaHQ9IjEuNTQiIHdpZHRoPSI1LjEiIHk9IjM4LjIxIiB4PSI1NS4yNCIgY2xhc3M9ImNscy0xIi8+PHJlY3QgaGVpZ2h0PSIxLjU0IiB3aWR0aD0iMS4yOCIgeT0iMzguMjEiIHg9IjYwLjgzIiBjbGFzcz0iY2xzLTEiLz48cmVjdCBoZWlnaHQ9IjEuNTQiIHdpZHRoPSIxLjI4IiB5PSIzOC4yMSIgeD0iNjMuMDkiIGNsYXNzPSJjbHMtMSIvPjxyZWN0IGhlaWdodD0iMS41NCIgd2lkdGg9IjUuMSIgeT0iMzguMjEiIHg9IjY0Ljg1IiBjbGFzcz0iY2xzLTEiLz48cmVjdCBoZWlnaHQ9IjEuNTQiIHdpZHRoPSIxLjI4IiB5PSIzOC4yMSIgeD0iNzAuNDMiIGNsYXNzPSJjbHMtMSIvPjxwYXRoIHRyYW5zZm9ybT0idHJhbnNsYXRlKC0zNTkuMjkgLTE2Ni41NCkiIGQ9Ik0zODMuMTQsMjA3LjA4YzIuMjYtLjI3LDEwLjU0LS45NCwxMC41NC0uOTR2LTEuMzlIMzc5LjV2MS41NFMzNzguNzEsMjA3LjYxLDM4My4xNCwyMDcuMDhaIiBjbGFzcz0iY2xzLTEiLz48cmVjdCBoZWlnaHQ9IjM1LjUxIiB3aWR0aD0iOC40OCIgeT0iMiIgeD0iMjEuNDQiIGNsYXNzPSJjbHMtNSIvPjxyZWN0IGhlaWdodD0iMS4zOCIgd2lkdGg9IjUuOTIiIHk9IjIuOTgiIHg9IjIyLjcyIiBjbGFzcz0iY2xzLTYiLz48cmVjdCBoZWlnaHQ9IjEuNTYiIHdpZHRoPSIxLjAzIiB5PSIzNi4yMSIgeD0iMzcuMDgiIGNsYXNzPSJjbHMtNyIvPjxyZWN0IGhlaWdodD0iMS41NiIgd2lkdGg9IjEuMDMiIHk9IjM2LjIxIiB4PSI0MC40NyIgY2xhc3M9ImNscy03Ii8+PHJlY3QgaGVpZ2h0PSIxLjU2IiB3aWR0aD0iMS4wMyIgeT0iMzYuMjEiIHg9IjQzLjg2IiBjbGFzcz0iY2xzLTciLz48cmVjdCBoZWlnaHQ9IjEuNTYiIHdpZHRoPSIxLjAzIiB5PSIzNi4yMSIgeD0iNDcuMjYiIGNsYXNzPSJjbHMtNyIvPjwvZz48L3N2Zz4=;points=[[0.25,1,0,0,0],[0.5,1,0,0,0],[0.75,1,0,0,0]];" vertex="1" parent="1">
          <mxGeometry x="603" y="199.5" width="75" height="41" as="geometry" />
        </mxCell>
        <mxCell id="hCn8fclELVwR4EzlVGi--48" value="X1" style="text;html=1;align=center;verticalAlign=middle;whiteSpace=wrap;rounded=0;fontSize=6;fillColor=default;points=[];" vertex="1" parent="1">
          <mxGeometry x="618.4999999999999" y="240" width="6" height="6" as="geometry" />
        </mxCell>
        <mxCell id="hCn8fclELVwR4EzlVGi--49" value="X2" style="text;html=1;align=center;verticalAlign=middle;whiteSpace=wrap;rounded=0;fontSize=6;fillColor=default;points=[];" vertex="1" parent="1">
          <mxGeometry x="637.4999999999999" y="240" width="6" height="6" as="geometry" />
        </mxCell>
        <mxCell id="hCn8fclELVwR4EzlVGi--50" value="X3" style="text;html=1;align=center;verticalAlign=middle;whiteSpace=wrap;rounded=0;fontSize=6;fillColor=default;points=[];" vertex="1" parent="1">
          <mxGeometry x="656.4999999999999" y="240" width="6" height="6" as="geometry" />
        </mxCell>
        <mxCell id="hCn8fclELVwR4EzlVGi--51" value="" style="shape=image;verticalLabelPosition=bottom;labelBackgroundColor=default;verticalAlign=top;aspect=fixed;imageAspect=0;image=data:image/svg+xml,PHN2ZyB4bWxucz0iaHR0cDovL3d3dy53My5vcmcvMjAwMC9zdmciIHZpZXdCb3g9IjAgMCA1Ny41NyA2Ny42MyI+PGRlZnM+PHN0eWxlPi5jbHMtMSwuY2xzLTcsLmNscy04e2ZpbGw6I2E2YzRkMTt9LmNscy0ye2ZpbGw6I2Q5ZTZlYjt9LmNscy0ze2ZpbGw6I2Q5ZWRmNTt9LmNscy00LC5jbHMtNXtmaWxsOm5vbmU7fS5jbHMtNCwuY2xzLTUsLmNscy03e3N0cm9rZTojMDA1NTdjO30uY2xzLTR7c3Ryb2tlLXdpZHRoOjAuODVweDt9LmNscy01LC5jbHMtN3tzdHJva2Utd2lkdGg6MC4yM3B4O30uY2xzLTZ7ZmlsbDojMDA1NTdjO30uY2xzLTh7ZmlsbC1ydWxlOmV2ZW5vZGQ7fTwvc3R5bGU+PC9kZWZzPjxnIGlkPSJPcmlnaW5hbCI+PHJlY3QgaGVpZ2h0PSI2Ni43OCIgd2lkdGg9IjU2LjcyIiB5PSIwLjQzIiB4PSIwLjQzIiBjbGFzcz0iY2xzLTEiLz48cmVjdCBoZWlnaHQ9IjE3LjQzIiB3aWR0aD0iNi40MSIgeT0iMTAuMTIiIHg9IjI4LjI5IiBjbGFzcz0iY2xzLTIiLz48cmVjdCBoZWlnaHQ9IjEuMTgiIHdpZHRoPSIxLjIiIHk9IjM3LjUxIiB4PSI0Ni40NCIgY2xhc3M9ImNscy0zIi8+PHJlY3QgaGVpZ2h0PSIxLjIiIHdpZHRoPSIxLjE4IiB5PSI3LjQ4IiB4PSI0Ny44NSIgY2xhc3M9ImNscy0zIi8+PHJlY3QgaGVpZ2h0PSIxLjIiIHdpZHRoPSIxLjIiIHk9IjcuNDgiIHg9IjQ2LjQ1IiBjbGFzcz0iY2xzLTMiLz48cmVjdCBoZWlnaHQ9IjEuMiIgd2lkdGg9IjEuMiIgeT0iNy40OCIgeD0iNDkuMjQiIGNsYXNzPSJjbHMtMyIvPjxyZWN0IGhlaWdodD0iMS4xOCIgd2lkdGg9IjEuMiIgeT0iMzIuNDMiIHg9IjIxLjg0IiBjbGFzcz0iY2xzLTMiLz48cmVjdCBoZWlnaHQ9IjEuMiIgd2lkdGg9IjEuMiIgeT0iMzAuNjQiIHg9IjIxLjg0IiBjbGFzcz0iY2xzLTMiLz48bGluZSB5Mj0iMy40OSIgeDI9IjAuNDMiIHkxPSIzLjQ5IiB4MT0iMTQuNzciIGNsYXNzPSJjbHMtNCIvPjxsaW5lIHkyPSI2Ny4yMSIgeDI9IjI0Ljc1IiB5MT0iMy40OSIgeDE9IjI0Ljc1IiBjbGFzcz0iY2xzLTEiLz48bGluZSB5Mj0iNjcuMjEiIHgyPSIyNC43NSIgeTE9IjMuNDkiIHgxPSIyNC43NSIgY2xhc3M9ImNscy00Ii8+PGxpbmUgeTI9IjguOTEiIHgyPSI1Ny4xNyIgeTE9IjguOTEiIHgxPSIxMy4zOCIgY2xhc3M9ImNscy01Ii8+PGxpbmUgeTI9IjcuMjQiIHgyPSI1Ny4xNyIgeTE9IjcuMjQiIHgxPSIxMy4zOCIgY2xhc3M9ImNscy01Ii8+PHJlY3QgaGVpZ2h0PSIyLjI2IiB3aWR0aD0iOC4wMSIgeT0iNC41MyIgeD0iMjcuNDkiIGNsYXNzPSJjbHMtNiIvPjxwYXRoIHRyYW5zZm9ybT0idHJhbnNsYXRlKC0zNjggLTE1My4yNykiIGQ9Ik0zODQuMzksMTU4Ljg4YTEsMSwwLDEsMS0xLjkzLDAsMSwxLDAsMCwxLDEuOTMsMFoiIGNsYXNzPSJjbHMtNSIvPjxyZWN0IGhlaWdodD0iMTcuMjMiIHdpZHRoPSI5LjUxIiB5PSI0OS40MSIgeD0iMC40MyIgY2xhc3M9ImNscy01Ii8+PHJlY3QgaGVpZ2h0PSIxMC45OSIgd2lkdGg9IjEyLjUzIiB5PSIzMC42NCIgeD0iMC40MiIgY2xhc3M9ImNscy03Ii8+PHJlY3QgaGVpZ2h0PSI1LjIyIiB3aWR0aD0iNy41IiB5PSI1Mi44NyIgeD0iNDkuNzgiIGNsYXNzPSJjbHMtNSIvPjxyZWN0IGhlaWdodD0iMTUuMTQiIHdpZHRoPSIyLjYyIiB5PSI0OC4xNiIgeD0iNTEuNTUiIGNsYXNzPSJjbHMtNyIvPjxyZWN0IGhlaWdodD0iNi4yOSIgd2lkdGg9IjkuNTEiIHk9IjUzLjIiIHg9IjAuNDMiIGNsYXNzPSJjbHMtNSIvPjxyZWN0IGhlaWdodD0iMTIuMyIgd2lkdGg9IjUuNSIgeT0iNTQuMzQiIHg9IjIuNjkiIGNsYXNzPSJjbHMtMSIvPjxyZWN0IGhlaWdodD0iMTIuMyIgd2lkdGg9IjUuNSIgeT0iNTQuMzQiIHg9IjIuNjkiIGNsYXNzPSJjbHMtNSIvPjxwYXRoIHRyYW5zZm9ybT0idHJhbnNsYXRlKC0zNjggLTE1My4yNykiIGQ9Ik0zNzMuMTMsMjA5LjczYS45NC45NCwwLDEsMS0uOTQtLjk0Ljk1Ljk1LDAsMCwxLC45NC45NCIgY2xhc3M9ImNscy04Ii8+PHBhdGggdHJhbnNmb3JtPSJ0cmFuc2xhdGUoLTM2OCAtMTUzLjI3KSIgZD0iTTM3My4xMywyMDkuNzNhLjk0Ljk0LDAsMSwxLS45NC0uOTRBLjk1Ljk1LDAsMCwxLDM3My4xMywyMDkuNzNaIiBjbGFzcz0iY2xzLTUiLz48cGF0aCB0cmFuc2Zvcm09InRyYW5zbGF0ZSgtMzY4IC0xNTMuMjcpIiBkPSJNMzc1LjY0LDIwOS43M2EuOTQuOTQsMCwxLDEtLjk0LS45NC45NS45NSwwLDAsMSwuOTQuOTQiIGNsYXNzPSJjbHMtOCIvPjxwYXRoIHRyYW5zZm9ybT0idHJhbnNsYXRlKC0zNjggLTE1My4yNykiIGQ9Ik0zNzUuNjQsMjA5LjczYS45NC45NCwwLDEsMS0uOTQtLjk0QS45NS45NSwwLDAsMSwzNzUuNjQsMjA5LjczWiIgY2xhc3M9ImNscy01Ii8+PHBhdGggdHJhbnNmb3JtPSJ0cmFuc2xhdGUoLTM2OCAtMTUzLjI3KSIgZD0iTTM3My4xMywyMTcuODlhLjk0Ljk0LDAsMSwxLS45NC0uOTQuOTQuOTQsMCwwLDEsLjk0Ljk0IiBjbGFzcz0iY2xzLTgiLz48cGF0aCB0cmFuc2Zvcm09InRyYW5zbGF0ZSgtMzY4IC0xNTMuMjcpIiBkPSJNMzczLjEzLDIxNy44OWEuOTQuOTQsMCwxLDEtLjk0LS45NEEuOTQuOTQsMCwwLDEsMzczLjEzLDIxNy44OVoiIGNsYXNzPSJjbHMtNSIvPjxwYXRoIHRyYW5zZm9ybT0idHJhbnNsYXRlKC0zNjggLTE1My4yNykiIGQ9Ik0zNzUuNjQsMjE3Ljg5YS45NC45NCwwLDEsMS0uOTQtLjk0Ljk0Ljk0LDAsMCwxLC45NC45NCIgY2xhc3M9ImNscy04Ii8+PHBhdGggdHJhbnNmb3JtPSJ0cmFuc2xhdGUoLTM2OCAtMTUzLjI3KSIgZD0iTTM3NS42NCwyMTcuODlhLjk0Ljk0LDAsMSwxLS45NC0uOTRBLjk0Ljk0LDAsMCwxLDM3NS42NCwyMTcuODlaIiBjbGFzcz0iY2xzLTUiLz48cmVjdCBoZWlnaHQ9IjAuOTkiIHdpZHRoPSI1LjUiIHk9IjU4LjA5IiB4PSIyLjY5IiBjbGFzcz0iY2xzLTEiLz48cmVjdCBoZWlnaHQ9IjAuOTkiIHdpZHRoPSI1LjUiIHk9IjU4LjA5IiB4PSIyLjY5IiBjbGFzcz0iY2xzLTUiLz48cmVjdCBoZWlnaHQ9IjAuOTkiIHdpZHRoPSI1LjUiIHk9IjYyLjA0IiB4PSIyLjY5IiBjbGFzcz0iY2xzLTEiLz48cmVjdCBoZWlnaHQ9IjAuOTkiIHdpZHRoPSI1LjUiIHk9IjYyLjA0IiB4PSIyLjY5IiBjbGFzcz0iY2xzLTUiLz48cmVjdCBoZWlnaHQ9IjEwLjk5IiB3aWR0aD0iNC4xOCIgeT0iMzAuNjQiIHg9IjQuNzUiIGNsYXNzPSJjbHMtNSIvPjxyZWN0IGhlaWdodD0iNC4yMSIgd2lkdGg9IjIuNzciIHk9IjM2LjciIHg9IjUuNDYiIGNsYXNzPSJjbHMtNSIvPjxyZWN0IGhlaWdodD0iNC4yMSIgd2lkdGg9IjIuMjkiIHk9IjM2LjciIHg9IjkuNzMiIGNsYXNzPSJjbHMtNSIvPjxyZWN0IGhlaWdodD0iNC4yMSIgd2lkdGg9IjIuMjkiIHk9IjM2LjciIHg9IjEuNjMiIGNsYXNzPSJjbHMtNSIvPjxyZWN0IGhlaWdodD0iNjYuNzgiIHdpZHRoPSI1Ni43MiIgeT0iMC40MyIgeD0iMC40MyIgY2xhc3M9ImNscy00Ii8+PHBvbHlsaW5lIHBvaW50cz0iNTcuMjggNDEuMDggMTMuMjUgNDEuMDggMTMuMjUgMy40OSA1Ny4yOCAzLjQ5IiBjbGFzcz0iY2xzLTQiLz48cmVjdCBoZWlnaHQ9IjEuMTgiIHdpZHRoPSIxLjIiIHk9IjMxLjYzIiB4PSIyLjE3IiBjbGFzcz0iY2xzLTMiLz48cmVjdCBoZWlnaHQ9IjguMzEiIHdpZHRoPSI1LjE4IiB5PSIzOS4xOSIgeD0iNDkuNzgiIGNsYXNzPSJjbHMtNyIvPjxwYXRoIHRyYW5zZm9ybT0idHJhbnNsYXRlKC0zNjggLTE1My4yNykiIGQ9Ik00MjIsMTk2LjYxYTEuNiwxLjYsMCwxLDEtMy4xOSwwLDEuNiwxLjYsMCwwLDEsMy4xOSwwWiIgY2xhc3M9ImNscy01Ii8+PHJlY3QgaGVpZ2h0PSI5LjA3IiB3aWR0aD0iNy44OSIgeT0iNS4wNyIgeD0iMi4xMSIgY2xhc3M9ImNscy01Ii8+PHBvbHlnb24gcG9pbnRzPSI0LjM1IDUuODcgNC4zNSA3LjQ5IDMuMzYgNy40OSAzLjM2IDguMzIgMi4xMSA4LjMyIDIuMTEgMTAuNzIgMy4zNiAxMC43MiAzLjM2IDExLjQ1IDQuMzUgMTEuNDUgNC4zNSAxMy4xNyA4LjU5IDEzLjE3IDguNTkgNS44NyA0LjM1IDUuODciIGNsYXNzPSJjbHMtNSIvPjxyZWN0IGhlaWdodD0iOS4wNyIgd2lkdGg9IjcuODkiIHk9IjEwLjEyIiB4PSIxNS4xNiIgY2xhc3M9ImNscy01Ii8+PHBvbHlnb24gcG9pbnRzPSIxNy4zOSAxMC45MiAxNy4zOSAxMi41MyAxNi40IDEyLjUzIDE2LjQgMTMuMzcgMTUuMTUgMTMuMzcgMTUuMTUgMTUuNzcgMTYuNCAxNS43NyAxNi40IDE2LjQ5IDE3LjM5IDE2LjQ5IDE3LjM5IDE4LjIyIDIxLjYzIDE4LjIyIDIxLjYzIDEwLjkyIDE3LjM5IDEwLjkyIiBjbGFzcz0iY2xzLTUiLz48cmVjdCBoZWlnaHQ9IjkuMDciIHdpZHRoPSI3Ljg5IiB5PSIyMC42NyIgeD0iMTUuMTYiIGNsYXNzPSJjbHMtNSIvPjxwb2x5Z29uIHBvaW50cz0iMTcuMzkgMjEuNDcgMTcuMzkgMjMuMDggMTYuNCAyMy4wOCAxNi40IDIzLjkyIDE1LjE1IDIzLjkyIDE1LjE1IDI2LjMyIDE2LjQgMjYuMzIgMTYuNCAyNy4wNCAxNy4zOSAyNy4wNCAxNy4zOSAyOC43NyAyMS42MyAyOC43NyAyMS42MyAyMS40NyAxNy4zOSAyMS40NyIgY2xhc3M9ImNscy01Ii8+PC9nPjwvc3ZnPg==;points=[[0.12,0,0,0,0],[0.34,0,0,0,0],[0.34,1,0,0,0]];" vertex="1" parent="1">
          <mxGeometry x="99" y="342" width="58" height="68" as="geometry" />
        </mxCell>
        <mxCell id="hCn8fclELVwR4EzlVGi--52" value="Text" style="text;html=1;strokeColor=none;fillColor=none;align=center;verticalAlign=middle;whiteSpace=wrap;rounded=0;points=[];" vertex="1" parent="1">
          <mxGeometry x="20" y="343" width="80" height="25" as="geometry" />
        </mxCell>
        <mxCell id="hCn8fclELVwR4EzlVGi--53" value="S7-1500SP" style="text;html=1;strokeColor=none;fillColor=none;align=center;verticalAlign=middle;whiteSpace=wrap;rounded=0;fontSize=9;points=[];" vertex="1" parent="1">
          <mxGeometry x="20" y="368" width="80" height="10" as="geometry" />
        </mxCell>
        <mxCell id="hCn8fclELVwR4EzlVGi--54" value="X1: x" style="text;html=1;strokeColor=none;fillColor=none;align=center;verticalAlign=middle;whiteSpace=wrap;rounded=0;fontSize=9;points=[];" vertex="1" parent="1">
          <mxGeometry x="20" y="388" width="80" height="10" as="geometry" />
        </mxCell>
        <mxCell id="hCn8fclELVwR4EzlVGi--55" value="I" style="text;html=1;align=center;verticalAlign=middle;whiteSpace=wrap;rounded=0;fontSize=6;fillColor=default;points=[];" vertex="1" parent="1">
          <mxGeometry x="116" y="336" width="6" height="6" as="geometry" />
        </mxCell>
        <mxCell id="hCn8fclELVwR4EzlVGi--56" value="O" style="text;html=1;align=center;verticalAlign=middle;whiteSpace=wrap;rounded=0;fontSize=6;fillColor=default;points=[];" vertex="1" parent="1">
          <mxGeometry x="116" y="410" width="6" height="6" as="geometry" />
        </mxCell>
        <mxCell id="hCn8fclELVwR4EzlVGi--57" value="I" style="text;html=1;align=center;verticalAlign=middle;whiteSpace=wrap;rounded=0;fontSize=6;fillColor=default;points=[];" vertex="1" parent="1">
          <mxGeometry x="103" y="336" width="6" height="6" as="geometry" />
        </mxCell>
        <mxCell id="hCn8fclELVwR4EzlVGi--58" value="" style="shape=image;verticalLabelPosition=bottom;labelBackgroundColor=default;verticalAlign=top;aspect=fixed;imageAspect=0;image=data:image/svg+xml,PHN2ZyB4bWxucz0iaHR0cDovL3d3dy53My5vcmcvMjAwMC9zdmciIHZpZXdCb3g9IjAgMCA1OS4wNyA0My4yIj48ZGVmcz48c3R5bGU+LmNscy0xLC5jbHMtMywuY2xzLTR7ZmlsbDojYTZjNGQxO30uY2xzLTEsLmNscy02e3N0cm9rZTojMDA1NTdjO3N0cm9rZS1taXRlcmxpbWl0OjEwO3N0cm9rZS13aWR0aDowLjg1cHg7fS5jbHMtMntmaWxsOiNkOWU2ZWI7fS5jbHMtNHtmaWxsLXJ1bGU6ZXZlbm9kZDt9LmNscy01e2ZpbGw6I2Q5ZWRmNTt9LmNscy02e2ZpbGw6bm9uZTt9LmNscy03e2ZpbGw6IzAwNTU3Yzt9PC9zdHlsZT48L2RlZnM+PGcgZGF0YS1uYW1lPSJPcmlnaW5hbCIgaWQ9Ik9yaWdpbmFsLTIiPjxyZWN0IGhlaWdodD0iNDIuMzUiIHdpZHRoPSI1OC4yMiIgeT0iMC40MyIgeD0iMC40MyIgY2xhc3M9ImNscy0xIi8+PHJlY3QgaGVpZ2h0PSIzOC42NiIgd2lkdGg9IjUyLjU4IiB5PSIwLjMiIHg9IjMuMjUiIGNsYXNzPSJjbHMtMiIvPjxwb2x5Z29uIHBvaW50cz0iNTEuMjIgMTkuNTEgNTEuMjkgOC4yMSA1NC43NyA4LjIxIDU0LjcgMC40MiA0LjM2IDAuNDIgNC4zNiAzNy44MiA1NC43IDM3LjgyIDU0LjcgMTkuNTEgNTEuMjIgMTkuNTEiIGNsYXNzPSJjbHMtMyIvPjxwb2x5Z29uIHBvaW50cz0iNTQuNzMgOC41OSA1NC43MyAxMC42MSA1NC4zOSAxMC42MSA1NC4zOSA5LjggNTEuNjEgOS44IDUxLjYxIDkuNDEgNTQuMzkgOS40MSA1NC4zOSA4LjU5IDU0LjczIDguNTkgNTQuNzMgOC41OSIgY2xhc3M9ImNscy00Ii8+PHBhdGggdHJhbnNmb3JtPSJ0cmFuc2xhdGUoLTM2Ny4zMSAtMTY1LjU1KSIgZD0iTTQxOC44NSwxNzcuMTlhLjkuOSwwLDAsMSwuMjktLjczLDEuNDEsMS40MSwwLDAsMSwuOTItLjI0aDFhMS4wOSwxLjA5LDAsMCwxLC43NS4yNS45MS45MSwwLDAsMSwuMjcuNzIuOTMuOTMsMCwwLDEtLjI3LjcyLDEuMTMsMS4xMywwLDAsMS0uNzUuMjVoLTFhMS4zOCwxLjM4LDAsMCwxLS45MS0uMjQuODcuODcsMCwwLDEtLjMtLjczWm0uMzQsMGEuNTEuNTEsMCwwLDAsLjE3LjQzLDEuMTYsMS4xNiwwLDAsMCwuNjkuMTRoMS4wNWEuNzMuNzMsMCwwLDAsLjUtLjE0LjUyLjUyLDAsMCwwLC4xOC0uNDMuNS41LDAsMCwwLS4xOC0uNDIuNjguNjgsMCwwLDAtLjUtLjE1aC0xLjA1YTEuMTgsMS4xOCwwLDAsMC0uNjkuMTQuNTEuNTEsMCwwLDAtLjE3LjQzWiIgY2xhc3M9ImNscy00Ii8+PHBhdGggdHJhbnNmb3JtPSJ0cmFuc2xhdGUoLTM2Ny4zMSAtMTY1LjU1KSIgZD0iTTQyMC4wNiwxNzguNDloMnYuNGgtMmExLjE3LDEuMTcsMCwwLDAtLjY5LjE1LjYzLjYzLDAsMCwwLDAsLjg2LDEuMTUsMS4xNSwwLDAsMCwuNjkuMTVoMnYuMzloLTJhMS4zOCwxLjM4LDAsMCwxLS45MS0uMjQuODYuODYsMCwwLDEtLjMtLjczLjkyLjkyLDAsMCwxLC4yOS0uNzQsMS40NywxLjQ3LDAsMCwxLC45Mi0uMjRaIiBjbGFzcz0iY2xzLTQiLz48cGF0aCB0cmFuc2Zvcm09InRyYW5zbGF0ZSgtMzY3LjMxIC0xNjUuNTUpIiBkPSJNNDIxLjE4LDE4Mi41N3YtLjQxbC4zMiwwYS41NS41NSwwLDAsMCwuMTUtLjA4LjM2LjM2LDAsMCwwLC4xLS4xNS42Ny42NywwLDAsMCwwLS4xOC41Ni41NiwwLDAsMC0uMTEtLjM1LjI0LjI0LDAsMCwwLS4xNC0uMTEsMSwxLDAsMCwwLS4yMS0uMDcsMi41NCwyLjU0LDAsMCwwLS40MywwaC0uODRhMS4xNSwxLjE1LDAsMCwwLS43Mi4xNy40OS40OSwwLDAsMC0uMTQuMzkuNDEuNDEsMCwwLDAsLjE3LjM1Ljc0Ljc0LDAsMCwwLC40OC4xMnYuNDFhMS4wNywxLjA3LDAsMCwxLS43NC0uMjIuODMuODMsMCwwLDEtLjI1LS42NSwxLDEsMCwwLDEsLjE3LS42MiwxLjM0LDEuMzQsMCwwLDEsMS4wNy0uMzRINDIxYTEuMjIsMS4yMiwwLDAsMSwuODkuMjYsMSwxLDAsMCwxLC4yNC43Mi43OS43OSwwLDAsMS0uMjMuNjMsMS4xOCwxLjE4LDAsMCwxLS43LjE4WiIgY2xhc3M9ImNscy00Ii8+PHBvbHlnb24gcG9pbnRzPSI1MS42MSAxNy4zMSA1NC43MyAxNy4zMSA1NC43MyAxNy43IDUzLjM4IDE3LjcgNTMuMzggMTguNzggNTQuNzMgMTguNzggNTQuNzMgMTkuMTcgNTEuNjEgMTkuMTcgNTEuNjEgMTguNzggNTMuMDMgMTguNzggNTMuMDMgMTcuNyA1MS42MSAxNy43IDUxLjYxIDE3LjMxIDUxLjYxIDE3LjMxIiBjbGFzcz0iY2xzLTQiLz48cmVjdCBoZWlnaHQ9IjI2LjIzIiB3aWR0aD0iNDMuNTEiIHk9IjguMiIgeD0iNy43OCIgY2xhc3M9ImNscy01Ii8+PHJlY3QgaGVpZ2h0PSI0Mi4zNSIgd2lkdGg9IjU4LjIyIiB5PSIwLjQzIiB4PSIwLjQzIiBjbGFzcz0iY2xzLTYiLz48cmVjdCBoZWlnaHQ9IjIuMjkiIHdpZHRoPSI4LjU5IiB5PSIyLjEzIiB4PSI3Ljc4IiBjbGFzcz0iY2xzLTciLz48L2c+PC9zdmc+;points=[[0.21,1,0,0,0],[0.57,1,0,0,0],[0.84,1,0,0,0]];" vertex="1" parent="1">
          <mxGeometry x="140" y="700" width="85.76" height="62.5" as="geometry" />
        </mxCell>
        <mxCell id="hCn8fclELVwR4EzlVGi--59" value="Text" style="text;html=1;strokeColor=none;fillColor=none;align=center;verticalAlign=middle;whiteSpace=wrap;rounded=0;points=[];" vertex="1" parent="1">
          <mxGeometry x="60" y="701.5" width="80" height="25" as="geometry" />
        </mxCell>
        <mxCell id="hCn8fclELVwR4EzlVGi--60" value="&amp;lt;panel type&amp;gt;" style="text;html=1;strokeColor=none;fillColor=none;align=center;verticalAlign=middle;whiteSpace=wrap;rounded=0;fontSize=9;points=[];" vertex="1" parent="1">
          <mxGeometry x="60" y="726.5" width="80" height="10" as="geometry" />
        </mxCell>
        <mxCell id="hCn8fclELVwR4EzlVGi--61" value="&amp;lt;addressing&amp;gt;" style="text;html=1;strokeColor=none;fillColor=none;align=center;verticalAlign=middle;whiteSpace=wrap;rounded=0;fontSize=9;points=[];" vertex="1" parent="1">
          <mxGeometry x="60" y="746.5" width="80" height="10" as="geometry" />
        </mxCell>
        <mxCell id="hCn8fclELVwR4EzlVGi--62" value="DP I" style="text;html=1;align=center;verticalAlign=middle;whiteSpace=wrap;rounded=0;fontSize=6;fillColor=default;points=[];" vertex="1" parent="1">
          <mxGeometry x="181" y="762.5" width="14.5" height="6" as="geometry" />
        </mxCell>
        <mxCell id="hCn8fclELVwR4EzlVGi--63" value="DP O" style="text;html=1;align=center;verticalAlign=middle;whiteSpace=wrap;rounded=0;fontSize=6;fillColor=default;points=[];" vertex="1" parent="1">
          <mxGeometry x="201.5" y="762.5" width="21.5" height="6" as="geometry" />
        </mxCell>
        <mxCell id="hCn8fclELVwR4EzlVGi--64" value="IE" style="text;html=1;align=center;verticalAlign=middle;whiteSpace=wrap;rounded=0;fontSize=6;fillColor=default;points=[];" vertex="1" parent="1">
          <mxGeometry x="151" y="762.5" width="14.5" height="6" as="geometry" />
        </mxCell>
        <mxCell id="hCn8fclELVwR4EzlVGi--65" value="" style="shape=image;verticalLabelPosition=bottom;labelBackgroundColor=default;verticalAlign=top;aspect=fixed;imageAspect=0;image=data:image/svg+xml,PHN2ZyB4bWxuczp4bGluaz0iaHR0cDovL3d3dy53My5vcmcvMTk5OS94bGluayIgeG1sbnM9Imh0dHA6Ly93d3cudzMub3JnLzIwMDAvc3ZnIiB0ZXh0LXJlbmRlcmluZz0iZ2VvbWV0cmljUHJlY2lzaW9uIiBzaGFwZS1yZW5kZXJpbmc9Imdlb21ldHJpY1ByZWNpc2lvbiIgdmlld0JveD0iMCAwIDEyLjUgMzYuNSIgaWQ9ImVweTJaVzRTbkZqMSI+PGc+PHJlY3Qgc3Ryb2tlLXdpZHRoPSIwLjg1IiBzdHJva2U9IiMwMDU1N2MiIGZpbGw9IiNhNmM0ZDEiIHRyYW5zZm9ybT0idHJhbnNsYXRlKC40MyAwLjQzKSIgcnk9IjAiIHJ4PSIwIiBoZWlnaHQ9IjM1LjQ0IiB3aWR0aD0iMTEuMzUiLz48cmVjdCBzdHJva2Utd2lkdGg9IjAuODUiIHN0cm9rZT0iIzAwNTU3YyIgZmlsbD0iIzAwNTU3YyIgdHJhbnNmb3JtPSJtYXRyaXgoLjQ4NzIyNCAwIDAtLjA0NDAxOCA1LjM0IDIuOTMpIiByeT0iMCIgcng9IjAiIGhlaWdodD0iMzUuNDQiIHdpZHRoPSIxMS4zNSIvPjxwYXRoIHN0cm9rZS13aWR0aD0iMC44NSIgc3Ryb2tlPSIjMDA1NTdjIiBmaWxsLXJ1bGU9ImV2ZW5vZGQiIGZpbGw9IiNhNmM0ZDEiIHRyYW5zZm9ybT0idHJhbnNsYXRlKC0zOTAuNzUtMTY4Ljk0KSIgZD0iIi8+PGxpbmUgc3Ryb2tlLXdpZHRoPSIwLjIzIiBzdHJva2U9IiMwMDU1N2MiIGZpbGw9Im5vbmUiIHkyPSIxNy40MyIgeDI9IjAuNDMiIHkxPSIxNy40MyIgeDE9IjExLjc3Ii8+PHBhdGggc3Ryb2tlLXdpZHRoPSIwLjIzIiBzdHJva2U9IiMwMDU1N2MiIGZpbGwtcnVsZT0iZXZlbm9kZCIgZmlsbD0iI2E2YzRkMSIgdHJhbnNmb3JtPSJ0cmFuc2xhdGUoLTM5MC43NS0xNjguOTQpIiBkPSIiLz48cG9seWxpbmUgc3Ryb2tlLXdpZHRoPSIwLjIzIiBzdHJva2U9IiNhNmM0ZDEiIGZpbGwtcnVsZT0iZXZlbm9kZCIgZmlsbD0iI2Q5ZWRmNSIgcG9pbnRzPSIxLjQ4LDMuODMgMi4zOSwzLjgzIDIuMzksMi45MyAxLjQ4LDIuOTMgMS40OCwzLjgzIi8+PHBvbHlsaW5lIHN0cm9rZS13aWR0aD0iMC4yMyIgc3Ryb2tlPSIjYTZjNGQxIiBmaWxsLXJ1bGU9ImV2ZW5vZGQiIGZpbGw9IiNkOWVkZjUiIHBvaW50cz0iMS40OCwyLjkzIDIuMzksMi45MyAyLjM5LDIuMDIgMS40OCwyLjAyIDEuNDgsMi45MyIvPjxwb2x5bGluZSBzdHJva2Utd2lkdGg9IjAuMjMiIHN0cm9rZT0iI2E2YzRkMSIgZmlsbC1ydWxlPSJldmVub2RkIiBmaWxsPSIjZDllZGY1IiBwb2ludHM9IjEuNDgsNC43NCAyLjM5LDQuNzQgMi4zOSwzLjgzIDEuNDgsMy44MyAxLjQ4LDQuNzQiLz48cG9seWxpbmUgc3Ryb2tlLXdpZHRoPSIwLjIzIiBzdHJva2U9IiNhNmM0ZDEiIGZpbGwtcnVsZT0iZXZlbm9kZCIgZmlsbD0iI2Q5ZWRmNSIgcG9pbnRzPSIxLjQ4LDYuNTUgMi4zOSw2LjU1IDIuMzksNS42NCAxLjQ4LDUuNjQgMS40OCw2LjU1Ii8+PHBvbHlsaW5lIHN0cm9rZS13aWR0aD0iMC4yMyIgc3Ryb2tlPSIjYTZjNGQxIiBmaWxsLXJ1bGU9ImV2ZW5vZGQiIGZpbGw9IiNkOWVkZjUiIHBvaW50cz0iMS40OCw1LjY0IDIuMzksNS42NCAyLjM5LDQuNzQgMS40OCw0Ljc0IDEuNDgsNS42NCIvPjxwb2x5bGluZSBzdHJva2Utd2lkdGg9IjAuMjMiIHN0cm9rZT0iI2E2YzRkMSIgZmlsbC1ydWxlPSJldmVub2RkIiBmaWxsPSIjZDllZGY1IiBwb2ludHM9IjEuNDgsNy40NiAyLjM5LDcuNDYgMi4zOSw2LjU1IDEuNDgsNi41NSAxLjQ4LDcuNDYiLz48cmVjdCBzdHJva2Utd2lkdGg9IjAiIGZpbGw9IiNkOWU2ZWIiIHRyYW5zZm9ybT0ibWF0cml4KDEuNDcxOTQ3IDAgMCAxLjI3MjkyIDQuMDA5MTcgNS40NikiIHJ5PSIwIiByeD0iMCIgaGVpZ2h0PSI3LjQ2MzEzIiB3aWR0aD0iNC4xMTU0MSIvPjxnIHRyYW5zZm9ybT0ibWF0cml4KC40MzIxNzMgMCAwIDAuNDMxMzEgMS4xNDA0NTcgMTguNzUzMTk4KSI+PHBhdGggc3Ryb2tlLXdpZHRoPSIwLjM3IiBzdHJva2U9IiMwMDU1N2MiIGZpbGw9Im5vbmUiIHRyYW5zZm9ybT0idHJhbnNsYXRlKC0zNzkuNDItMTU2Ljc5KSIgZD0iTTM4NC4xOCwxNjQuNDFjLS41NDMwMjQuMDk2NzY3LS45Mzg4NzguNTY4NDIzLS45NCwxLjEydjYuMjZjLjAwMTEyMi41NTE1NzcuMzk2OTc2LDEuMDIzMjMzLjk0LDEuMTJsMi4yNy40Yy4zMzA3NjEuMDU5NDg5LjY3MDgzOC0uMDMxMzMyLjkyNzkwMS0uMjQ3ODA2cy40MDQ0MzItLjUzNjEzNC40MDIwOTktLjg3MjE5NHYtNy4wNmMuMDAyMzMzLS4zMzYwNi0uMTQ1MDM3LS42NTU3MjEtLjQwMjA5OS0uODcyMTk0cy0uNTk3MTQtLjMwNzI5NS0uOTI3OTAxLS4yNDc4MDZsLTIuMjcuNFoiLz48cG9seWdvbiBzdHJva2Utd2lkdGg9IjAuMzciIHN0cm9rZT0iIzAwNTU3YyIgZmlsbD0ibm9uZSIgdHJhbnNmb3JtPSJ0cmFuc2xhdGUoMC00KSIgcG9pbnRzPSI2LjgxLDIxLjcxIDUuMzcsMjEuNzEgNC42NSwyMi45NiA1LjM3LDI0LjIxIDYuODEsMjQuMjEgNy41NCwyMi45NiA2LjgxLDIxLjcxIi8+PHBhdGggc3Ryb2tlLXdpZHRoPSIwLjM3IiBzdHJva2U9IiMwMDU1N2MiIGZpbGw9Im5vbmUiIHRyYW5zZm9ybT0idHJhbnNsYXRlKC0zNzkuNDItMTU2Ljc5KSIgZD0iTTM4NiwxNzUuNzVjMC0uMjkyNzExLS4yMzcyODktLjUzLS41My0uNTMtLjEzOTY2My0uMDAwMDI2LS4yNzM0NjUuMDU2MTMtLjM3MTI3Ny4xNTU4MjNzLS4xNTE0MDkuMjM0NTQtLjE0ODcyMy4zNzQxNzdjMCwuMjg3MTg4LjIzMjgxMi41Mi41Mi41Mi4xMzk2MzcuMDAyNjg2LjI3NDQ4NS0uMDUwOTEyLjM3NDE3Ny0uMTQ4NzIzcy4xNTU4NDktLjIzMTYxNC4xNTU4MjMtLjM3MTI3N1oiLz48cG9seWdvbiBzdHJva2Utd2lkdGg9IjAuMzciIHN0cm9rZT0iIzAwNTU3YyIgZmlsbD0ibm9uZSIgdHJhbnNmb3JtPSJ0cmFuc2xhdGUoMC00KSIgcG9pbnRzPSI2LjgxLDcuNTQgNS4zNyw3LjU0IDQuNjUsOC43OSA1LjM3LDEwLjA0IDYuODEsMTAuMDQgNy41NCw4Ljc5IDYuODEsNy41NCIvPjxwYXRoIHN0cm9rZS13aWR0aD0iMC4zNyIgc3Ryb2tlPSIjMDA1NTdjIiBmaWxsPSJub25lIiB0cmFuc2Zvcm09InRyYW5zbGF0ZSgtMzc5LjQyLTE1Ni43OSkiIGQ9Ik0zODYsMTYxLjU4YzAtLjI5MjcxMS0uMjM3Mjg5LS41My0uNTMtLjUzLS4yMTIyMTYuMDc0NjA4LS4zNTQyMTYuMjc1MDUxLS4zNTQyMTYuNXMuMTQyLjQyNTM5Mi4zNTQyMTYuNWMuMjcwNzk1LjAwMTc0LjQ5OTM0OS0uMjAwOTM5LjUzLS40N1oiLz48cmVjdCBzdHJva2Utd2lkdGg9IjAuNSIgc3Ryb2tlPSIjMDA1NTdjIiBmaWxsPSJub25lIiB0cmFuc2Zvcm09Im1hdHJpeCgyLjA4NTIzNCAwIDAgMi4yNjc0NzEgMS45ODg4ODggMS43MzE0NzQpIiByeT0iMCIgcng9IjAiIGhlaWdodD0iOC45NDY5ODciIHdpZHRoPSI0LjE2NSIvPjwvZz48ZyB0cmFuc2Zvcm09Im1hdHJpeCguNDMyMTczIDAgMCAwLjQzMTMxIDUuODkwNDU3IDE4Ljc1MzE5OCkiPjxwYXRoIHN0cm9rZS13aWR0aD0iMC4zNyIgc3Ryb2tlPSIjMDA1NTdjIiBmaWxsPSJub25lIiB0cmFuc2Zvcm09InRyYW5zbGF0ZSgtMzc5LjQyLTE1Ni43OSkiIGQ9Ik0zODQuMTgsMTY0LjQxYy0uNTQzMDI0LjA5Njc2Ny0uOTM4ODc4LjU2ODQyMy0uOTQsMS4xMnY2LjI2Yy4wMDExMjIuNTUxNTc3LjM5Njk3NiwxLjAyMzIzMy45NCwxLjEybDIuMjcuNGMuMzMwNzYxLjA1OTQ4OS42NzA4MzgtLjAzMTMzMi45Mjc5MDEtLjI0NzgwNnMuNDA0NDMyLS41MzYxMzQuNDAyMDk5LS44NzIxOTR2LTcuMDZjLjAwMjMzMy0uMzM2MDYtLjE0NTAzNy0uNjU1NzIxLS40MDIwOTktLjg3MjE5NHMtLjU5NzE0LS4zMDcyOTUtLjkyNzkwMS0uMjQ3ODA2bC0yLjI3LjRaIi8+PHBvbHlnb24gc3Ryb2tlLXdpZHRoPSIwLjM3IiBzdHJva2U9IiMwMDU1N2MiIGZpbGw9Im5vbmUiIHRyYW5zZm9ybT0idHJhbnNsYXRlKDAtNCkiIHBvaW50cz0iNi44MSwyMS43MSA1LjM3LDIxLjcxIDQuNjUsMjIuOTYgNS4zNywyNC4yMSA2LjgxLDI0LjIxIDcuNTQsMjIuOTYgNi44MSwyMS43MSIvPjxwYXRoIHN0cm9rZS13aWR0aD0iMC4zNyIgc3Ryb2tlPSIjMDA1NTdjIiBmaWxsPSJub25lIiB0cmFuc2Zvcm09InRyYW5zbGF0ZSgtMzc5LjQyLTE1Ni43OSkiIGQ9Ik0zODYsMTc1Ljc1YzAtLjI5MjcxMS0uMjM3Mjg5LS41My0uNTMtLjUzLS4xMzk2NjMtLjAwMDAyNi0uMjczNDY1LjA1NjEzLS4zNzEyNzcuMTU1ODIzcy0uMTUxNDA5LjIzNDU0LS4xNDg3MjMuMzc0MTc3YzAsLjI4NzE4OC4yMzI4MTIuNTIuNTIuNTIuMTM5NjM3LjAwMjY4Ni4yNzQ0ODUtLjA1MDkxMi4zNzQxNzctLjE0ODcyM3MuMTU1ODQ5LS4yMzE2MTQuMTU1ODIzLS4zNzEyNzdaIi8+PHBvbHlnb24gc3Ryb2tlLXdpZHRoPSIwLjM3IiBzdHJva2U9IiMwMDU1N2MiIGZpbGw9Im5vbmUiIHRyYW5zZm9ybT0idHJhbnNsYXRlKDAtNCkiIHBvaW50cz0iNi44MSw3LjU0IDUuMzcsNy41NCA0LjY1LDguNzkgNS4zNywxMC4wNCA2LjgxLDEwLjA0IDcuNTQsOC43OSA2LjgxLDcuNTQiLz48cGF0aCBzdHJva2Utd2lkdGg9IjAuMzciIHN0cm9rZT0iIzAwNTU3YyIgZmlsbD0ibm9uZSIgdHJhbnNmb3JtPSJ0cmFuc2xhdGUoLTM3OS40Mi0xNTYuNzkpIiBkPSJNMzg2LDE2MS41OGMwLS4yOTI3MTEtLjIzNzI4OS0uNTMtLjUzLS41My0uMjEyMjE2LjA3NDYwOC0uMzU0MjE2LjI3NTA1MS0uMzU0MjE2LjVzLjE0Mi40MjUzOTIuMzU0MjE2LjVjLjI3MDc5NS4wMDE3NC40OTkzNDktLjIwMDkzOS41My0uNDdaIi8+PHJlY3Qgc3Ryb2tlLXdpZHRoPSIwLjUiIHN0cm9rZT0iIzAwNTU3YyIgZmlsbD0ibm9uZSIgdHJhbnNmb3JtPSJtYXRyaXgoMi4wODUyMzQgMCAwIDIuMjY3NDcxIDEuOTg4ODg4IDEuNzMxNDc0KSIgcnk9IjAiIHJ4PSIwIiBoZWlnaHQ9IjguOTQ2OTg3IiB3aWR0aD0iNC4xNjUiLz48L2c+PC9nPjwvc3ZnPg==;points=[[0.25,0,0,0,0],[0.25,1,0,0,0],[0.75,0,0,0,0],[0.75,1,0,0,0]];" vertex="1" parent="1">
          <mxGeometry x="382" y="806" width="20.73" height="59" as="geometry" />
        </mxCell>
        <mxCell id="hCn8fclELVwR4EzlVGi--66" value="Text" style="text;html=1;strokeColor=none;fillColor=none;align=center;verticalAlign=middle;whiteSpace=wrap;rounded=0;points=[];" vertex="1" parent="1">
          <mxGeometry x="322" y="806" width="60" height="20" as="geometry" />
        </mxCell>
        <mxCell id="hCn8fclELVwR4EzlVGi--67" value="DP x / DP x" style="text;html=1;strokeColor=none;fillColor=none;align=center;verticalAlign=middle;whiteSpace=wrap;rounded=0;fontSize=7;points=[];" vertex="1" parent="1">
          <mxGeometry x="322" y="836" width="60" height="10" as="geometry" />
        </mxCell>
        <mxCell id="hCn8fclELVwR4EzlVGi--68" value="DP/DP Coupler" style="text;html=1;strokeColor=none;fillColor=none;align=center;verticalAlign=middle;whiteSpace=wrap;rounded=0;fontSize=7;points=[];" vertex="1" parent="1">
          <mxGeometry x="322" y="826" width="60" height="10" as="geometry" />
        </mxCell>
        <mxCell id="hCn8fclELVwR4EzlVGi--69" value="I" style="text;html=1;align=center;verticalAlign=middle;whiteSpace=wrap;rounded=0;fontSize=6;fillColor=default;points=[];" vertex="1" parent="1">
          <mxGeometry x="394.5" y="800" width="6" height="6" as="geometry" />
        </mxCell>
        <mxCell id="hCn8fclELVwR4EzlVGi--70" value="O" style="text;html=1;align=center;verticalAlign=middle;whiteSpace=wrap;rounded=0;fontSize=6;fillColor=default;points=[];" vertex="1" parent="1">
          <mxGeometry x="394.5" y="865" width="6" height="6" as="geometry" />
        </mxCell>
        <mxCell id="hCn8fclELVwR4EzlVGi--71" value="I" style="text;html=1;align=center;verticalAlign=middle;whiteSpace=wrap;rounded=0;fontSize=6;fillColor=default;points=[];" vertex="1" parent="1">
          <mxGeometry x="384.5" y="800" width="6" height="6" as="geometry" />
        </mxCell>
        <mxCell id="hCn8fclELVwR4EzlVGi--72" value="O" style="text;html=1;align=center;verticalAlign=middle;whiteSpace=wrap;rounded=0;fontSize=6;fillColor=default;points=[];" vertex="1" parent="1">
          <mxGeometry x="384.5" y="865" width="6" height="6" as="geometry" />
        </mxCell>
        <mxCell id="hCn8fclELVwR4EzlVGi--73" value="ProfiHub" style="text;html=1;strokeColor=none;fillColor=none;align=center;verticalAlign=middle;whiteSpace=wrap;rounded=0;fontSize=11;fontFamily=Helvetica;fontColor=default;points=[];" vertex="1" parent="1">
          <mxGeometry x="513" y="855.75" width="55" height="12.25" as="geometry" />
        </mxCell>
        <mxCell id="hCn8fclELVwR4EzlVGi--74" value="Text" style="text;html=1;strokeColor=none;fillColor=none;align=center;verticalAlign=middle;whiteSpace=wrap;rounded=0;fontSize=11;fontFamily=Helvetica;fontColor=default;points=[];" vertex="1" parent="1">
          <mxGeometry x="513" y="840.75" width="55" height="12.25" as="geometry" />
        </mxCell>
        <mxCell id="hCn8fclELVwR4EzlVGi--75" value="" style="rounded=0;whiteSpace=wrap;html=1;fontFamily=Helvetica;fontSize=11;fontColor=default;fillColor=#a6c4d1;strokeColor=#00557c;points=[[0.32,1,0,0,0],[0.33,0,0,0,0],[0.44,0,0,0,0],[0.44,1,0,0,0],[0.56,0,0,0,0],[0.56,1,0,0,0],[0.68,0,0,0,0],[0.68,1,0,0,0],[0.8,0,0,0,0],[0.81,1,0,0,0],[0.92,0,0,0,0],[0.92,1,0,0,0]];" vertex="1" parent="1">
          <mxGeometry x="568" y="833.38" width="62.000000000000014" height="37.62" as="geometry" />
        </mxCell>
        <mxCell id="hCn8fclELVwR4EzlVGi--76" value="" style="rounded=0;whiteSpace=wrap;html=1;fontFamily=Helvetica;fontSize=11;fontColor=default;fillColor=#d9edf5;strokeColor=none;" vertex="1" parent="1">
          <mxGeometry x="584.8072289156628" y="837.5588235294117" width="5.975903614457833" height="15.196078431372548" as="geometry" />
        </mxCell>
        <mxCell id="hCn8fclELVwR4EzlVGi--77" value="" style="shape=image;verticalLabelPosition=bottom;labelBackgroundColor=default;verticalAlign=top;aspect=fixed;imageAspect=0;image=data:image/svg+xml,PHN2ZyB4bWxuczp4bGluaz0iaHR0cDovL3d3dy53My5vcmcvMTk5OS94bGluayIgeG1sbnM9Imh0dHA6Ly93d3cudzMub3JnLzIwMDAvc3ZnIiB0ZXh0LXJlbmRlcmluZz0iZ2VvbWV0cmljUHJlY2lzaW9uIiBzaGFwZS1yZW5kZXJpbmc9Imdlb21ldHJpY1ByZWNpc2lvbiIgdmlld0JveD0iMCAwIDYuMjUgMTgiIGlkPSJlMDhHYVRKZloxNDEiPjxwYXRoIHN0cm9rZS13aWR0aD0iMC4zNyIgc3Ryb2tlPSIjMDA1NTdjIiBmaWxsPSJub25lIiB0cmFuc2Zvcm09InRyYW5zbGF0ZSgtMzgyLjQyLTE1OS43OSkiIGQ9Ik0zODQuMTgsMTY0LjQxYy0uNTQzMDI0LjA5Njc2Ny0uOTM4ODc4LjU2ODQyMy0uOTQsMS4xMnY2LjI2Yy4wMDExMjIuNTUxNTc3LjM5Njk3NiwxLjAyMzIzMy45NCwxLjEybDIuMjcuNGMuMzMwNzYxLjA1OTQ4OS42NzA4MzgtLjAzMTMzMi45Mjc5MDEtLjI0NzgwNnMuNDA0NDMyLS41MzYxMzQuNDAyMDk5LS44NzIxOTR2LTcuMDZjLjAwMjMzMy0uMzM2MDYtLjE0NTAzNy0uNjU1NzIxLS40MDIwOTktLjg3MjE5NHMtLjU5NzE0LS4zMDcyOTUtLjkyNzkwMS0uMjQ3ODA2bC0yLjI3LjRaIi8+PHBvbHlnb24gc3Ryb2tlLXdpZHRoPSIwLjM3IiBzdHJva2U9IiMwMDU1N2MiIGZpbGw9Im5vbmUiIHRyYW5zZm9ybT0idHJhbnNsYXRlKC0zLTcpIiBwb2ludHM9IjYuODEsMjEuNzEgNS4zNywyMS43MSA0LjY1LDIyLjk2IDUuMzcsMjQuMjEgNi44MSwyNC4yMSA3LjU0LDIyLjk2IDYuODEsMjEuNzEiLz48cG9seWdvbiBzdHJva2Utd2lkdGg9IjAuMzciIHN0cm9rZT0iIzAwNTU3YyIgZmlsbD0ibm9uZSIgdHJhbnNmb3JtPSJ0cmFuc2xhdGUoLTMtNykiIHBvaW50cz0iNi44MSw3LjU0IDUuMzcsNy41NCA0LjY1LDguNzkgNS4zNywxMC4wNCA2LjgxLDEwLjA0IDcuNTQsOC43OSA2LjgxLDcuNTQiLz48cGF0aCBzdHJva2Utd2lkdGg9IjAuMzciIHN0cm9rZT0iIzAwNTU3YyIgZmlsbD0ibm9uZSIgdHJhbnNmb3JtPSJ0cmFuc2xhdGUoLTM4Mi40Mi0xNTkuNzkpIiBkPSJNMzg2LDE2MS41OGMwLS4yOTI3MTEtLjIzNzI4OS0uNTMtLjUzLS41My0uMjEyMjE2LjA3NDYwOC0uMzU0MjE2LjI3NTA1MS0uMzU0MjE2LjVzLjE0Mi40MjUzOTIuMzU0MjE2LjVjLjI3MDc5NS4wMDE3NC40OTkzNDktLjIwMDkzOS41My0uNDdaIi8+PHBhdGggc3Ryb2tlLXdpZHRoPSIwLjM3IiBzdHJva2U9IiMwMDU1N2MiIGZpbGw9Im5vbmUiIHRyYW5zZm9ybT0idHJhbnNsYXRlKC0zODIuNDItMTU5Ljc5KSIgZD0iTTM4NiwxNzUuNzVjMC0uMjkyNzExLS4yMzcyODktLjUzLS41My0uNTMtLjEzOTY2My0uMDAwMDI2LS4yNzM0NjUuMDU2MTMtLjM3MTI3Ny4xNTU4MjNzLS4xNTE0MDkuMjM0NTQtLjE0ODcyMy4zNzQxNzdjMCwuMjg3MTg4LjIzMjgxMi41Mi41Mi41Mi4xMzk2MzcuMDAyNjg2LjI3NDQ4NS0uMDUwOTEyLjM3NDE3Ny0uMTQ4NzIzcy4xNTU4NDktLjIzMTYxNC4xNTU4MjMtLjM3MTI3N1oiLz48L3N2Zz4=;fontFamily=Helvetica;fontSize=11;fontColor=default;" vertex="1" parent="1">
          <mxGeometry x="585.9277108433735" y="839.0784313725491" width="3.434165802281975" height="10.289635362642622" as="geometry" />
        </mxCell>
        <mxCell id="hCn8fclELVwR4EzlVGi--78" value="" style="rounded=0;whiteSpace=wrap;html=1;fontFamily=Helvetica;fontSize=11;fontColor=default;fillColor=#d9edf5;strokeColor=none;" vertex="1" parent="1">
          <mxGeometry x="592.2771084337351" y="837.5588235294117" width="5.975903614457833" height="15.196078431372548" as="geometry" />
        </mxCell>
        <mxCell id="hCn8fclELVwR4EzlVGi--79" value="" style="shape=image;verticalLabelPosition=bottom;labelBackgroundColor=default;verticalAlign=top;aspect=fixed;imageAspect=0;image=data:image/svg+xml,PHN2ZyB4bWxuczp4bGluaz0iaHR0cDovL3d3dy53My5vcmcvMTk5OS94bGluayIgeG1sbnM9Imh0dHA6Ly93d3cudzMub3JnLzIwMDAvc3ZnIiB0ZXh0LXJlbmRlcmluZz0iZ2VvbWV0cmljUHJlY2lzaW9uIiBzaGFwZS1yZW5kZXJpbmc9Imdlb21ldHJpY1ByZWNpc2lvbiIgdmlld0JveD0iMCAwIDYuMjUgMTgiIGlkPSJlMDhHYVRKZloxNDEiPjxwYXRoIHN0cm9rZS13aWR0aD0iMC4zNyIgc3Ryb2tlPSIjMDA1NTdjIiBmaWxsPSJub25lIiB0cmFuc2Zvcm09InRyYW5zbGF0ZSgtMzgyLjQyLTE1OS43OSkiIGQ9Ik0zODQuMTgsMTY0LjQxYy0uNTQzMDI0LjA5Njc2Ny0uOTM4ODc4LjU2ODQyMy0uOTQsMS4xMnY2LjI2Yy4wMDExMjIuNTUxNTc3LjM5Njk3NiwxLjAyMzIzMy45NCwxLjEybDIuMjcuNGMuMzMwNzYxLjA1OTQ4OS42NzA4MzgtLjAzMTMzMi45Mjc5MDEtLjI0NzgwNnMuNDA0NDMyLS41MzYxMzQuNDAyMDk5LS44NzIxOTR2LTcuMDZjLjAwMjMzMy0uMzM2MDYtLjE0NTAzNy0uNjU1NzIxLS40MDIwOTktLjg3MjE5NHMtLjU5NzE0LS4zMDcyOTUtLjkyNzkwMS0uMjQ3ODA2bC0yLjI3LjRaIi8+PHBvbHlnb24gc3Ryb2tlLXdpZHRoPSIwLjM3IiBzdHJva2U9IiMwMDU1N2MiIGZpbGw9Im5vbmUiIHRyYW5zZm9ybT0idHJhbnNsYXRlKC0zLTcpIiBwb2ludHM9IjYuODEsMjEuNzEgNS4zNywyMS43MSA0LjY1LDIyLjk2IDUuMzcsMjQuMjEgNi44MSwyNC4yMSA3LjU0LDIyLjk2IDYuODEsMjEuNzEiLz48cG9seWdvbiBzdHJva2Utd2lkdGg9IjAuMzciIHN0cm9rZT0iIzAwNTU3YyIgZmlsbD0ibm9uZSIgdHJhbnNmb3JtPSJ0cmFuc2xhdGUoLTMtNykiIHBvaW50cz0iNi44MSw3LjU0IDUuMzcsNy41NCA0LjY1LDguNzkgNS4zNywxMC4wNCA2LjgxLDEwLjA0IDcuNTQsOC43OSA2LjgxLDcuNTQiLz48cGF0aCBzdHJva2Utd2lkdGg9IjAuMzciIHN0cm9rZT0iIzAwNTU3YyIgZmlsbD0ibm9uZSIgdHJhbnNmb3JtPSJ0cmFuc2xhdGUoLTM4Mi40Mi0xNTkuNzkpIiBkPSJNMzg2LDE2MS41OGMwLS4yOTI3MTEtLjIzNzI4OS0uNTMtLjUzLS41My0uMjEyMjE2LjA3NDYwOC0uMzU0MjE2LjI3NTA1MS0uMzU0MjE2LjVzLjE0Mi40MjUzOTIuMzU0MjE2LjVjLjI3MDc5NS4wMDE3NC40OTkzNDktLjIwMDkzOS41My0uNDdaIi8+PHBhdGggc3Ryb2tlLXdpZHRoPSIwLjM3IiBzdHJva2U9IiMwMDU1N2MiIGZpbGw9Im5vbmUiIHRyYW5zZm9ybT0idHJhbnNsYXRlKC0zODIuNDItMTU5Ljc5KSIgZD0iTTM4NiwxNzUuNzVjMC0uMjkyNzExLS4yMzcyODktLjUzLS41My0uNTMtLjEzOTY2My0uMDAwMDI2LS4yNzM0NjUuMDU2MTMtLjM3MTI3Ny4xNTU4MjNzLS4xNTE0MDkuMjM0NTQtLjE0ODcyMy4zNzQxNzdjMCwuMjg3MTg4LjIzMjgxMi41Mi41Mi41Mi4xMzk2MzcuMDAyNjg2LjI3NDQ4NS0uMDUwOTEyLjM3NDE3Ny0uMTQ4NzIzcy4xNTU4NDktLjIzMTYxNC4xNTU4MjMtLjM3MTI3N1oiLz48L3N2Zz4=;fontFamily=Helvetica;fontSize=11;fontColor=default;" vertex="1" parent="1">
          <mxGeometry x="593.3975903614457" y="839.0784313725491" width="3.434165802281975" height="10.289635362642622" as="geometry" />
        </mxCell>
        <mxCell id="hCn8fclELVwR4EzlVGi--80" value="" style="rounded=0;whiteSpace=wrap;html=1;fontFamily=Helvetica;fontSize=11;fontColor=default;fillColor=#d9edf5;strokeColor=none;" vertex="1" parent="1">
          <mxGeometry x="599.7469879518073" y="837.5588235294117" width="5.975903614457833" height="15.196078431372548" as="geometry" />
        </mxCell>
        <mxCell id="hCn8fclELVwR4EzlVGi--81" value="" style="shape=image;verticalLabelPosition=bottom;labelBackgroundColor=default;verticalAlign=top;aspect=fixed;imageAspect=0;image=data:image/svg+xml,PHN2ZyB4bWxuczp4bGluaz0iaHR0cDovL3d3dy53My5vcmcvMTk5OS94bGluayIgeG1sbnM9Imh0dHA6Ly93d3cudzMub3JnLzIwMDAvc3ZnIiB0ZXh0LXJlbmRlcmluZz0iZ2VvbWV0cmljUHJlY2lzaW9uIiBzaGFwZS1yZW5kZXJpbmc9Imdlb21ldHJpY1ByZWNpc2lvbiIgdmlld0JveD0iMCAwIDYuMjUgMTgiIGlkPSJlMDhHYVRKZloxNDEiPjxwYXRoIHN0cm9rZS13aWR0aD0iMC4zNyIgc3Ryb2tlPSIjMDA1NTdjIiBmaWxsPSJub25lIiB0cmFuc2Zvcm09InRyYW5zbGF0ZSgtMzgyLjQyLTE1OS43OSkiIGQ9Ik0zODQuMTgsMTY0LjQxYy0uNTQzMDI0LjA5Njc2Ny0uOTM4ODc4LjU2ODQyMy0uOTQsMS4xMnY2LjI2Yy4wMDExMjIuNTUxNTc3LjM5Njk3NiwxLjAyMzIzMy45NCwxLjEybDIuMjcuNGMuMzMwNzYxLjA1OTQ4OS42NzA4MzgtLjAzMTMzMi45Mjc5MDEtLjI0NzgwNnMuNDA0NDMyLS41MzYxMzQuNDAyMDk5LS44NzIxOTR2LTcuMDZjLjAwMjMzMy0uMzM2MDYtLjE0NTAzNy0uNjU1NzIxLS40MDIwOTktLjg3MjE5NHMtLjU5NzE0LS4zMDcyOTUtLjkyNzkwMS0uMjQ3ODA2bC0yLjI3LjRaIi8+PHBvbHlnb24gc3Ryb2tlLXdpZHRoPSIwLjM3IiBzdHJva2U9IiMwMDU1N2MiIGZpbGw9Im5vbmUiIHRyYW5zZm9ybT0idHJhbnNsYXRlKC0zLTcpIiBwb2ludHM9IjYuODEsMjEuNzEgNS4zNywyMS43MSA0LjY1LDIyLjk2IDUuMzcsMjQuMjEgNi44MSwyNC4yMSA3LjU0LDIyLjk2IDYuODEsMjEuNzEiLz48cG9seWdvbiBzdHJva2Utd2lkdGg9IjAuMzciIHN0cm9rZT0iIzAwNTU3YyIgZmlsbD0ibm9uZSIgdHJhbnNmb3JtPSJ0cmFuc2xhdGUoLTMtNykiIHBvaW50cz0iNi44MSw3LjU0IDUuMzcsNy41NCA0LjY1LDguNzkgNS4zNywxMC4wNCA2LjgxLDEwLjA0IDcuNTQsOC43OSA2LjgxLDcuNTQiLz48cGF0aCBzdHJva2Utd2lkdGg9IjAuMzciIHN0cm9rZT0iIzAwNTU3YyIgZmlsbD0ibm9uZSIgdHJhbnNmb3JtPSJ0cmFuc2xhdGUoLTM4Mi40Mi0xNTkuNzkpIiBkPSJNMzg2LDE2MS41OGMwLS4yOTI3MTEtLjIzNzI4OS0uNTMtLjUzLS41My0uMjEyMjE2LjA3NDYwOC0uMzU0MjE2LjI3NTA1MS0uMzU0MjE2LjVzLjE0Mi40MjUzOTIuMzU0MjE2LjVjLjI3MDc5NS4wMDE3NC40OTkzNDktLjIwMDkzOS41My0uNDdaIi8+PHBhdGggc3Ryb2tlLXdpZHRoPSIwLjM3IiBzdHJva2U9IiMwMDU1N2MiIGZpbGw9Im5vbmUiIHRyYW5zZm9ybT0idHJhbnNsYXRlKC0zODIuNDItMTU5Ljc5KSIgZD0iTTM4NiwxNzUuNzVjMC0uMjkyNzExLS4yMzcyODktLjUzLS41My0uNTMtLjEzOTY2My0uMDAwMDI2LS4yNzM0NjUuMDU2MTMtLjM3MTI3Ny4xNTU4MjNzLS4xNTE0MDkuMjM0NTQtLjE0ODcyMy4zNzQxNzdjMCwuMjg3MTg4LjIzMjgxMi41Mi41Mi41Mi4xMzk2MzcuMDAyNjg2LjI3NDQ4NS0uMDUwOTEyLjM3NDE3Ny0uMTQ4NzIzcy4xNTU4NDktLjIzMTYxNC4xNTU4MjMtLjM3MTI3N1oiLz48L3N2Zz4=;fontFamily=Helvetica;fontSize=11;fontColor=default;" vertex="1" parent="1">
          <mxGeometry x="600.8674698795182" y="839.0784313725491" width="3.434165802281975" height="10.289635362642622" as="geometry" />
        </mxCell>
        <mxCell id="hCn8fclELVwR4EzlVGi--82" value="" style="rounded=0;whiteSpace=wrap;html=1;fontFamily=Helvetica;fontSize=11;fontColor=default;fillColor=#d9edf5;strokeColor=none;" vertex="1" parent="1">
          <mxGeometry x="607.2168674698796" y="837.5588235294117" width="5.975903614457833" height="15.196078431372548" as="geometry" />
        </mxCell>
        <mxCell id="hCn8fclELVwR4EzlVGi--83" value="" style="shape=image;verticalLabelPosition=bottom;labelBackgroundColor=default;verticalAlign=top;aspect=fixed;imageAspect=0;image=data:image/svg+xml,PHN2ZyB4bWxuczp4bGluaz0iaHR0cDovL3d3dy53My5vcmcvMTk5OS94bGluayIgeG1sbnM9Imh0dHA6Ly93d3cudzMub3JnLzIwMDAvc3ZnIiB0ZXh0LXJlbmRlcmluZz0iZ2VvbWV0cmljUHJlY2lzaW9uIiBzaGFwZS1yZW5kZXJpbmc9Imdlb21ldHJpY1ByZWNpc2lvbiIgdmlld0JveD0iMCAwIDYuMjUgMTgiIGlkPSJlMDhHYVRKZloxNDEiPjxwYXRoIHN0cm9rZS13aWR0aD0iMC4zNyIgc3Ryb2tlPSIjMDA1NTdjIiBmaWxsPSJub25lIiB0cmFuc2Zvcm09InRyYW5zbGF0ZSgtMzgyLjQyLTE1OS43OSkiIGQ9Ik0zODQuMTgsMTY0LjQxYy0uNTQzMDI0LjA5Njc2Ny0uOTM4ODc4LjU2ODQyMy0uOTQsMS4xMnY2LjI2Yy4wMDExMjIuNTUxNTc3LjM5Njk3NiwxLjAyMzIzMy45NCwxLjEybDIuMjcuNGMuMzMwNzYxLjA1OTQ4OS42NzA4MzgtLjAzMTMzMi45Mjc5MDEtLjI0NzgwNnMuNDA0NDMyLS41MzYxMzQuNDAyMDk5LS44NzIxOTR2LTcuMDZjLjAwMjMzMy0uMzM2MDYtLjE0NTAzNy0uNjU1NzIxLS40MDIwOTktLjg3MjE5NHMtLjU5NzE0LS4zMDcyOTUtLjkyNzkwMS0uMjQ3ODA2bC0yLjI3LjRaIi8+PHBvbHlnb24gc3Ryb2tlLXdpZHRoPSIwLjM3IiBzdHJva2U9IiMwMDU1N2MiIGZpbGw9Im5vbmUiIHRyYW5zZm9ybT0idHJhbnNsYXRlKC0zLTcpIiBwb2ludHM9IjYuODEsMjEuNzEgNS4zNywyMS43MSA0LjY1LDIyLjk2IDUuMzcsMjQuMjEgNi44MSwyNC4yMSA3LjU0LDIyLjk2IDYuODEsMjEuNzEiLz48cG9seWdvbiBzdHJva2Utd2lkdGg9IjAuMzciIHN0cm9rZT0iIzAwNTU3YyIgZmlsbD0ibm9uZSIgdHJhbnNmb3JtPSJ0cmFuc2xhdGUoLTMtNykiIHBvaW50cz0iNi44MSw3LjU0IDUuMzcsNy41NCA0LjY1LDguNzkgNS4zNywxMC4wNCA2LjgxLDEwLjA0IDcuNTQsOC43OSA2LjgxLDcuNTQiLz48cGF0aCBzdHJva2Utd2lkdGg9IjAuMzciIHN0cm9rZT0iIzAwNTU3YyIgZmlsbD0ibm9uZSIgdHJhbnNmb3JtPSJ0cmFuc2xhdGUoLTM4Mi40Mi0xNTkuNzkpIiBkPSJNMzg2LDE2MS41OGMwLS4yOTI3MTEtLjIzNzI4OS0uNTMtLjUzLS41My0uMjEyMjE2LjA3NDYwOC0uMzU0MjE2LjI3NTA1MS0uMzU0MjE2LjVzLjE0Mi40MjUzOTIuMzU0MjE2LjVjLjI3MDc5NS4wMDE3NC40OTkzNDktLjIwMDkzOS41My0uNDdaIi8+PHBhdGggc3Ryb2tlLXdpZHRoPSIwLjM3IiBzdHJva2U9IiMwMDU1N2MiIGZpbGw9Im5vbmUiIHRyYW5zZm9ybT0idHJhbnNsYXRlKC0zODIuNDItMTU5Ljc5KSIgZD0iTTM4NiwxNzUuNzVjMC0uMjkyNzExLS4yMzcyODktLjUzLS41My0uNTMtLjEzOTY2My0uMDAwMDI2LS4yNzM0NjUuMDU2MTMtLjM3MTI3Ny4xNTU4MjNzLS4xNTE0MDkuMjM0NTQtLjE0ODcyMy4zNzQxNzdjMCwuMjg3MTg4LjIzMjgxMi41Mi41Mi41Mi4xMzk2MzcuMDAyNjg2LjI3NDQ4NS0uMDUwOTEyLjM3NDE3Ny0uMTQ4NzIzcy4xNTU4NDktLjIzMTYxNC4xNTU4MjMtLjM3MTI3N1oiLz48L3N2Zz4=;fontFamily=Helvetica;fontSize=11;fontColor=default;" vertex="1" parent="1">
          <mxGeometry x="608.3373493975905" y="839.0784313725491" width="3.434165802281975" height="10.289635362642622" as="geometry" />
        </mxCell>
        <mxCell id="hCn8fclELVwR4EzlVGi--84" value="" style="rounded=0;whiteSpace=wrap;html=1;fontFamily=Helvetica;fontSize=11;fontColor=default;fillColor=#d9edf5;strokeColor=none;" vertex="1" parent="1">
          <mxGeometry x="614.6867469879519" y="837.5588235294117" width="5.975903614457833" height="15.196078431372548" as="geometry" />
        </mxCell>
        <mxCell id="hCn8fclELVwR4EzlVGi--85" value="" style="shape=image;verticalLabelPosition=bottom;labelBackgroundColor=default;verticalAlign=top;aspect=fixed;imageAspect=0;image=data:image/svg+xml,PHN2ZyB4bWxuczp4bGluaz0iaHR0cDovL3d3dy53My5vcmcvMTk5OS94bGluayIgeG1sbnM9Imh0dHA6Ly93d3cudzMub3JnLzIwMDAvc3ZnIiB0ZXh0LXJlbmRlcmluZz0iZ2VvbWV0cmljUHJlY2lzaW9uIiBzaGFwZS1yZW5kZXJpbmc9Imdlb21ldHJpY1ByZWNpc2lvbiIgdmlld0JveD0iMCAwIDYuMjUgMTgiIGlkPSJlMDhHYVRKZloxNDEiPjxwYXRoIHN0cm9rZS13aWR0aD0iMC4zNyIgc3Ryb2tlPSIjMDA1NTdjIiBmaWxsPSJub25lIiB0cmFuc2Zvcm09InRyYW5zbGF0ZSgtMzgyLjQyLTE1OS43OSkiIGQ9Ik0zODQuMTgsMTY0LjQxYy0uNTQzMDI0LjA5Njc2Ny0uOTM4ODc4LjU2ODQyMy0uOTQsMS4xMnY2LjI2Yy4wMDExMjIuNTUxNTc3LjM5Njk3NiwxLjAyMzIzMy45NCwxLjEybDIuMjcuNGMuMzMwNzYxLjA1OTQ4OS42NzA4MzgtLjAzMTMzMi45Mjc5MDEtLjI0NzgwNnMuNDA0NDMyLS41MzYxMzQuNDAyMDk5LS44NzIxOTR2LTcuMDZjLjAwMjMzMy0uMzM2MDYtLjE0NTAzNy0uNjU1NzIxLS40MDIwOTktLjg3MjE5NHMtLjU5NzE0LS4zMDcyOTUtLjkyNzkwMS0uMjQ3ODA2bC0yLjI3LjRaIi8+PHBvbHlnb24gc3Ryb2tlLXdpZHRoPSIwLjM3IiBzdHJva2U9IiMwMDU1N2MiIGZpbGw9Im5vbmUiIHRyYW5zZm9ybT0idHJhbnNsYXRlKC0zLTcpIiBwb2ludHM9IjYuODEsMjEuNzEgNS4zNywyMS43MSA0LjY1LDIyLjk2IDUuMzcsMjQuMjEgNi44MSwyNC4yMSA3LjU0LDIyLjk2IDYuODEsMjEuNzEiLz48cG9seWdvbiBzdHJva2Utd2lkdGg9IjAuMzciIHN0cm9rZT0iIzAwNTU3YyIgZmlsbD0ibm9uZSIgdHJhbnNmb3JtPSJ0cmFuc2xhdGUoLTMtNykiIHBvaW50cz0iNi44MSw3LjU0IDUuMzcsNy41NCA0LjY1LDguNzkgNS4zNywxMC4wNCA2LjgxLDEwLjA0IDcuNTQsOC43OSA2LjgxLDcuNTQiLz48cGF0aCBzdHJva2Utd2lkdGg9IjAuMzciIHN0cm9rZT0iIzAwNTU3YyIgZmlsbD0ibm9uZSIgdHJhbnNmb3JtPSJ0cmFuc2xhdGUoLTM4Mi40Mi0xNTkuNzkpIiBkPSJNMzg2LDE2MS41OGMwLS4yOTI3MTEtLjIzNzI4OS0uNTMtLjUzLS41My0uMjEyMjE2LjA3NDYwOC0uMzU0MjE2LjI3NTA1MS0uMzU0MjE2LjVzLjE0Mi40MjUzOTIuMzU0MjE2LjVjLjI3MDc5NS4wMDE3NC40OTkzNDktLjIwMDkzOS41My0uNDdaIi8+PHBhdGggc3Ryb2tlLXdpZHRoPSIwLjM3IiBzdHJva2U9IiMwMDU1N2MiIGZpbGw9Im5vbmUiIHRyYW5zZm9ybT0idHJhbnNsYXRlKC0zODIuNDItMTU5Ljc5KSIgZD0iTTM4NiwxNzUuNzVjMC0uMjkyNzExLS4yMzcyODktLjUzLS41My0uNTMtLjEzOTY2My0uMDAwMDI2LS4yNzM0NjUuMDU2MTMtLjM3MTI3Ny4xNTU4MjNzLS4xNTE0MDkuMjM0NTQtLjE0ODcyMy4zNzQxNzdjMCwuMjg3MTg4LjIzMjgxMi41Mi41Mi41Mi4xMzk2MzcuMDAyNjg2LjI3NDQ4NS0uMDUwOTEyLjM3NDE3Ny0uMTQ4NzIzcy4xNTU4NDktLjIzMTYxNC4xNTU4MjMtLjM3MTI3N1oiLz48L3N2Zz4=;fontFamily=Helvetica;fontSize=11;fontColor=default;" vertex="1" parent="1">
          <mxGeometry x="615.8072289156628" y="839.0784313725491" width="3.434165802281975" height="10.289635362642622" as="geometry" />
        </mxCell>
        <mxCell id="hCn8fclELVwR4EzlVGi--86" value="" style="rounded=0;whiteSpace=wrap;html=1;fontFamily=Helvetica;fontSize=11;fontColor=default;fillColor=#d9edf5;strokeColor=none;" vertex="1" parent="1">
          <mxGeometry x="622.1566265060242" y="837.5588235294117" width="5.975903614457833" height="15.196078431372548" as="geometry" />
        </mxCell>
        <mxCell id="hCn8fclELVwR4EzlVGi--87" value="" style="shape=image;verticalLabelPosition=bottom;labelBackgroundColor=default;verticalAlign=top;aspect=fixed;imageAspect=0;image=data:image/svg+xml,PHN2ZyB4bWxuczp4bGluaz0iaHR0cDovL3d3dy53My5vcmcvMTk5OS94bGluayIgeG1sbnM9Imh0dHA6Ly93d3cudzMub3JnLzIwMDAvc3ZnIiB0ZXh0LXJlbmRlcmluZz0iZ2VvbWV0cmljUHJlY2lzaW9uIiBzaGFwZS1yZW5kZXJpbmc9Imdlb21ldHJpY1ByZWNpc2lvbiIgdmlld0JveD0iMCAwIDYuMjUgMTgiIGlkPSJlMDhHYVRKZloxNDEiPjxwYXRoIHN0cm9rZS13aWR0aD0iMC4zNyIgc3Ryb2tlPSIjMDA1NTdjIiBmaWxsPSJub25lIiB0cmFuc2Zvcm09InRyYW5zbGF0ZSgtMzgyLjQyLTE1OS43OSkiIGQ9Ik0zODQuMTgsMTY0LjQxYy0uNTQzMDI0LjA5Njc2Ny0uOTM4ODc4LjU2ODQyMy0uOTQsMS4xMnY2LjI2Yy4wMDExMjIuNTUxNTc3LjM5Njk3NiwxLjAyMzIzMy45NCwxLjEybDIuMjcuNGMuMzMwNzYxLjA1OTQ4OS42NzA4MzgtLjAzMTMzMi45Mjc5MDEtLjI0NzgwNnMuNDA0NDMyLS41MzYxMzQuNDAyMDk5LS44NzIxOTR2LTcuMDZjLjAwMjMzMy0uMzM2MDYtLjE0NTAzNy0uNjU1NzIxLS40MDIwOTktLjg3MjE5NHMtLjU5NzE0LS4zMDcyOTUtLjkyNzkwMS0uMjQ3ODA2bC0yLjI3LjRaIi8+PHBvbHlnb24gc3Ryb2tlLXdpZHRoPSIwLjM3IiBzdHJva2U9IiMwMDU1N2MiIGZpbGw9Im5vbmUiIHRyYW5zZm9ybT0idHJhbnNsYXRlKC0zLTcpIiBwb2ludHM9IjYuODEsMjEuNzEgNS4zNywyMS43MSA0LjY1LDIyLjk2IDUuMzcsMjQuMjEgNi44MSwyNC4yMSA3LjU0LDIyLjk2IDYuODEsMjEuNzEiLz48cG9seWdvbiBzdHJva2Utd2lkdGg9IjAuMzciIHN0cm9rZT0iIzAwNTU3YyIgZmlsbD0ibm9uZSIgdHJhbnNmb3JtPSJ0cmFuc2xhdGUoLTMtNykiIHBvaW50cz0iNi44MSw3LjU0IDUuMzcsNy41NCA0LjY1LDguNzkgNS4zNywxMC4wNCA2LjgxLDEwLjA0IDcuNTQsOC43OSA2LjgxLDcuNTQiLz48cGF0aCBzdHJva2Utd2lkdGg9IjAuMzciIHN0cm9rZT0iIzAwNTU3YyIgZmlsbD0ibm9uZSIgdHJhbnNmb3JtPSJ0cmFuc2xhdGUoLTM4Mi40Mi0xNTkuNzkpIiBkPSJNMzg2LDE2MS41OGMwLS4yOTI3MTEtLjIzNzI4OS0uNTMtLjUzLS41My0uMjEyMjE2LjA3NDYwOC0uMzU0MjE2LjI3NTA1MS0uMzU0MjE2LjVzLjE0Mi40MjUzOTIuMzU0MjE2LjVjLjI3MDc5NS4wMDE3NC40OTkzNDktLjIwMDkzOS41My0uNDdaIi8+PHBhdGggc3Ryb2tlLXdpZHRoPSIwLjM3IiBzdHJva2U9IiMwMDU1N2MiIGZpbGw9Im5vbmUiIHRyYW5zZm9ybT0idHJhbnNsYXRlKC0zODIuNDItMTU5Ljc5KSIgZD0iTTM4NiwxNzUuNzVjMC0uMjkyNzExLS4yMzcyODktLjUzLS41My0uNTMtLjEzOTY2My0uMDAwMDI2LS4yNzM0NjUuMDU2MTMtLjM3MTI3Ny4xNTU4MjNzLS4xNTE0MDkuMjM0NTQtLjE0ODcyMy4zNzQxNzdjMCwuMjg3MTg4LjIzMjgxMi41Mi41Mi41Mi4xMzk2MzcuMDAyNjg2LjI3NDQ4NS0uMDUwOTEyLjM3NDE3Ny0uMTQ4NzIzcy4xNTU4NDktLjIzMTYxNC4xNTU4MjMtLjM3MTI3N1oiLz48L3N2Zz4=;fontFamily=Helvetica;fontSize=11;fontColor=default;" vertex="1" parent="1">
          <mxGeometry x="623.2771084337351" y="839.0784313725491" width="3.434165802281975" height="10.289635362642622" as="geometry" />
        </mxCell>
        <mxCell id="hCn8fclELVwR4EzlVGi--88" value="" style="endArrow=none;html=1;rounded=0;labelBackgroundColor=default;strokeColor=#00557c;strokeWidth=0.35;align=center;verticalAlign=middle;fontFamily=Helvetica;fontSize=11;fontColor=default;fillColor=#d5e8d4;shape=connector;edgeStyle=orthogonalEdgeStyle;" edge="1" parent="1">
          <mxGeometry width="50" height="50" relative="1" as="geometry">
            <mxPoint x="591.9036144578313" y="860.3529411764706" as="sourcePoint" />
            <mxPoint x="591.9036144578313" y="833" as="targetPoint" />
          </mxGeometry>
        </mxCell>
        <mxCell id="hCn8fclELVwR4EzlVGi--89" value="" style="endArrow=none;html=1;rounded=0;labelBackgroundColor=default;strokeColor=#00557c;strokeWidth=0.35;align=center;verticalAlign=middle;fontFamily=Helvetica;fontSize=11;fontColor=default;fillColor=#d5e8d4;shape=connector;edgeStyle=orthogonalEdgeStyle;" edge="1" parent="1">
          <mxGeometry width="50" height="50" relative="1" as="geometry">
            <mxPoint x="599.3734939759036" y="860.3529411764706" as="sourcePoint" />
            <mxPoint x="599.3734939759036" y="833" as="targetPoint" />
          </mxGeometry>
        </mxCell>
        <mxCell id="hCn8fclELVwR4EzlVGi--90" value="" style="endArrow=none;html=1;rounded=0;labelBackgroundColor=default;strokeColor=#00557c;strokeWidth=0.35;align=center;verticalAlign=middle;fontFamily=Helvetica;fontSize=11;fontColor=default;fillColor=#d5e8d4;shape=connector;edgeStyle=orthogonalEdgeStyle;" edge="1" parent="1">
          <mxGeometry width="50" height="50" relative="1" as="geometry">
            <mxPoint x="606.8433734939758" y="860.3529411764706" as="sourcePoint" />
            <mxPoint x="606.8433734939758" y="833" as="targetPoint" />
          </mxGeometry>
        </mxCell>
        <mxCell id="hCn8fclELVwR4EzlVGi--91" value="" style="endArrow=none;html=1;rounded=0;labelBackgroundColor=default;strokeColor=#00557c;strokeWidth=0.35;align=center;verticalAlign=middle;fontFamily=Helvetica;fontSize=11;fontColor=default;fillColor=#d5e8d4;shape=connector;edgeStyle=orthogonalEdgeStyle;" edge="1" parent="1">
          <mxGeometry width="50" height="50" relative="1" as="geometry">
            <mxPoint x="614.3132530120481" y="860.3529411764706" as="sourcePoint" />
            <mxPoint x="614.3132530120481" y="833" as="targetPoint" />
          </mxGeometry>
        </mxCell>
        <mxCell id="hCn8fclELVwR4EzlVGi--92" value="" style="endArrow=none;html=1;rounded=0;labelBackgroundColor=default;strokeColor=#00557c;strokeWidth=0.35;align=center;verticalAlign=middle;fontFamily=Helvetica;fontSize=11;fontColor=default;fillColor=#d5e8d4;shape=connector;edgeStyle=orthogonalEdgeStyle;" edge="1" parent="1">
          <mxGeometry width="50" height="50" relative="1" as="geometry">
            <mxPoint x="621.7831325301204" y="860.3529411764706" as="sourcePoint" />
            <mxPoint x="621.7831325301204" y="833" as="targetPoint" />
          </mxGeometry>
        </mxCell>
        <mxCell id="hCn8fclELVwR4EzlVGi--93" value="" style="endArrow=none;html=1;rounded=0;labelBackgroundColor=default;strokeColor=#00557c;strokeWidth=0.35;align=center;verticalAlign=middle;fontFamily=Helvetica;fontSize=11;fontColor=default;fillColor=#d5e8d4;shape=connector;edgeStyle=orthogonalEdgeStyle;" edge="1" parent="1">
          <mxGeometry width="50" height="50" relative="1" as="geometry">
            <mxPoint x="576.9638554216867" y="860.3529411764706" as="sourcePoint" />
            <mxPoint x="584.433734939759" y="833" as="targetPoint" />
            <Array as="points">
              <mxPoint x="576.9638554216867" y="860.3529411764706" />
              <mxPoint x="576.9638554216867" y="854.2745098039215" />
              <mxPoint x="584.433734939759" y="854.2745098039215" />
            </Array>
          </mxGeometry>
        </mxCell>
        <mxCell id="hCn8fclELVwR4EzlVGi--94" value="" style="rounded=0;whiteSpace=wrap;html=1;fontFamily=Helvetica;fontSize=11;fontColor=default;fillColor=#d9edf5;strokeColor=none;" vertex="1" parent="1">
          <mxGeometry x="586.3012048192772" y="854.2745098039215" width="2.9879518072289164" height="1.5196078431372548" as="geometry" />
        </mxCell>
        <mxCell id="hCn8fclELVwR4EzlVGi--95" value="" style="rounded=0;whiteSpace=wrap;html=1;fontFamily=Helvetica;fontSize=11;fontColor=default;fillColor=#d9edf5;strokeColor=none;" vertex="1" parent="1">
          <mxGeometry x="593.7710843373495" y="854.2745098039215" width="2.9879518072289164" height="1.5196078431372548" as="geometry" />
        </mxCell>
        <mxCell id="hCn8fclELVwR4EzlVGi--96" value="" style="rounded=0;whiteSpace=wrap;html=1;fontFamily=Helvetica;fontSize=11;fontColor=default;fillColor=#d9edf5;strokeColor=none;" vertex="1" parent="1">
          <mxGeometry x="601.2409638554218" y="854.2745098039215" width="2.9879518072289164" height="1.5196078431372548" as="geometry" />
        </mxCell>
        <mxCell id="hCn8fclELVwR4EzlVGi--97" value="" style="rounded=0;whiteSpace=wrap;html=1;fontFamily=Helvetica;fontSize=11;fontColor=default;fillColor=#d9edf5;strokeColor=none;" vertex="1" parent="1">
          <mxGeometry x="616.1807228915663" y="854.2745098039215" width="2.9879518072289164" height="1.5196078431372548" as="geometry" />
        </mxCell>
        <mxCell id="hCn8fclELVwR4EzlVGi--98" value="" style="rounded=0;whiteSpace=wrap;html=1;fontFamily=Helvetica;fontSize=11;fontColor=default;fillColor=#d9edf5;strokeColor=none;" vertex="1" parent="1">
          <mxGeometry x="623.6506024096386" y="854.2745098039215" width="2.9879518072289164" height="1.5196078431372548" as="geometry" />
        </mxCell>
        <mxCell id="hCn8fclELVwR4EzlVGi--99" value="" style="rounded=0;whiteSpace=wrap;html=1;fontFamily=Helvetica;fontSize=11;fontColor=default;fillColor=#d9edf5;strokeColor=none;" vertex="1" parent="1">
          <mxGeometry x="608.7108433734941" y="854.2745098039215" width="2.9879518072289164" height="1.5196078431372548" as="geometry" />
        </mxCell>
        <mxCell id="hCn8fclELVwR4EzlVGi--100" value="" style="rounded=0;whiteSpace=wrap;html=1;fontFamily=Helvetica;fontSize=11;fontColor=default;fillColor=#00557c;strokeColor=none;" vertex="1" parent="1">
          <mxGeometry x="570.9879518072289" y="842.1176470588235" width="10.457831325301207" height="3.0392156862745097" as="geometry" />
        </mxCell>
        <mxCell id="hCn8fclELVwR4EzlVGi--101" value="" style="ellipse;whiteSpace=wrap;html=1;fontFamily=Helvetica;fontSize=11;fontColor=default;fillColor=#d9edf5;strokeColor=#00557c;strokeWidth=0.25;" vertex="1" parent="1">
          <mxGeometry x="571.3614457831327" y="834.5196078431372" width="5.2289156626506035" height="5.318627450980392" as="geometry" />
        </mxCell>
        <mxCell id="hCn8fclELVwR4EzlVGi--102" value="" style="rounded=0;whiteSpace=wrap;html=1;fontFamily=Helvetica;fontSize=11;fontColor=default;fillColor=#0073A8;strokeColor=none;" vertex="1" parent="1">
          <mxGeometry x="587.7204819277108" y="854.2745098039215" width="1.4939759036144582" height="1.5196078431372548" as="geometry" />
        </mxCell>
        <mxCell id="hCn8fclELVwR4EzlVGi--103" value="" style="rounded=0;whiteSpace=wrap;html=1;fontFamily=Helvetica;fontSize=11;fontColor=default;fillColor=#0073A8;strokeColor=none;" vertex="1" parent="1">
          <mxGeometry x="595.1903614457831" y="854.2745098039215" width="1.4939759036144582" height="1.5196078431372548" as="geometry" />
        </mxCell>
        <mxCell id="hCn8fclELVwR4EzlVGi--104" value="" style="rounded=0;whiteSpace=wrap;html=1;fontFamily=Helvetica;fontSize=11;fontColor=default;fillColor=#0073A8;strokeColor=none;" vertex="1" parent="1">
          <mxGeometry x="602.6602409638556" y="854.2745098039215" width="1.4939759036144582" height="1.5196078431372548" as="geometry" />
        </mxCell>
        <mxCell id="hCn8fclELVwR4EzlVGi--105" value="" style="rounded=0;whiteSpace=wrap;html=1;fontFamily=Helvetica;fontSize=11;fontColor=default;fillColor=#0073A8;strokeColor=none;" vertex="1" parent="1">
          <mxGeometry x="610.1301204819279" y="854.2745098039215" width="1.4939759036144582" height="1.5196078431372548" as="geometry" />
        </mxCell>
        <mxCell id="hCn8fclELVwR4EzlVGi--106" value="" style="rounded=0;whiteSpace=wrap;html=1;fontFamily=Helvetica;fontSize=11;fontColor=default;fillColor=#0073A8;strokeColor=none;" vertex="1" parent="1">
          <mxGeometry x="617.6000000000001" y="854.2745098039215" width="1.4939759036144582" height="1.5196078431372548" as="geometry" />
        </mxCell>
        <mxCell id="hCn8fclELVwR4EzlVGi--107" value="" style="rounded=0;whiteSpace=wrap;html=1;fontFamily=Helvetica;fontSize=11;fontColor=default;fillColor=#0073A8;strokeColor=none;" vertex="1" parent="1">
          <mxGeometry x="625.0698795180724" y="854.2745098039215" width="1.4939759036144582" height="1.5196078431372548" as="geometry" />
        </mxCell>
        <mxCell id="hCn8fclELVwR4EzlVGi--108" value="" style="rounded=0;whiteSpace=wrap;html=1;fontFamily=Helvetica;fontSize=11;fontColor=default;fillColor=#a2cadd;strokeColor=#00557c;strokeWidth=0.5;points=[];" vertex="1" parent="1">
          <mxGeometry x="568.3734939759036" y="860.3529411764706" width="61.25301204819278" height="10.637254901960784" as="geometry" />
        </mxCell>
        <mxCell id="hCn8fclELVwR4EzlVGi--109" value="Web Server" style="text;html=1;strokeColor=none;fillColor=none;align=center;verticalAlign=middle;whiteSpace=wrap;rounded=0;fontSize=11;fontFamily=Helvetica;fontColor=default;container=0;" vertex="1" parent="1">
          <mxGeometry x="236" y="924.81" width="89.5" height="26.14" as="geometry" />
        </mxCell>
        <mxCell id="hCn8fclELVwR4EzlVGi--110" value="&amp;lt;addressing&amp;gt;" style="text;html=1;strokeColor=none;fillColor=none;align=center;verticalAlign=middle;whiteSpace=wrap;rounded=0;fontSize=11;fontFamily=Helvetica;fontColor=default;container=0;" vertex="1" parent="1">
          <mxGeometry x="226" y="954.81" width="99.5" height="26.14" as="geometry" />
        </mxCell>
        <mxCell id="hCn8fclELVwR4EzlVGi--111" value="" style="group" vertex="1" connectable="0" parent="1">
          <mxGeometry x="327.20000000000005" y="920" width="108.79999999999995" height="61" as="geometry" />
        </mxCell>
        <mxCell id="hCn8fclELVwR4EzlVGi--112" value="" style="rounded=0;whiteSpace=wrap;html=1;pointerEvents=0;strokeWidth=1;align=center;verticalAlign=middle;fontFamily=Helvetica;fontSize=11;container=0;" vertex="1" parent="hCn8fclELVwR4EzlVGi--111">
          <mxGeometry width="108.8" height="61" as="geometry" />
        </mxCell>
        <mxCell id="hCn8fclELVwR4EzlVGi--113" value="" style="rounded=0;whiteSpace=wrap;html=1;pointerEvents=0;strokeWidth=1;align=center;verticalAlign=middle;fontFamily=Helvetica;fontSize=11;fontColor=default;fillColor=none;gradientColor=none;container=0;" vertex="1" parent="hCn8fclELVwR4EzlVGi--111">
          <mxGeometry y="8.714285714285666" width="108.8" height="43.57142857142857" as="geometry" />
        </mxCell>
        <mxCell id="hCn8fclELVwR4EzlVGi--114" value="" style="endArrow=none;html=1;rounded=0;labelBackgroundColor=default;strokeColor=#000000;strokeWidth=1;align=center;verticalAlign=middle;fontFamily=Helvetica;fontSize=11;fontColor=default;fillColor=#dae8fc;shape=connector;" edge="1" parent="hCn8fclELVwR4EzlVGi--111">
          <mxGeometry width="50" height="50" relative="1" as="geometry">
            <mxPoint y="38.342857142857156" as="sourcePoint" />
            <mxPoint x="17" y="38.342857142857156" as="targetPoint" />
          </mxGeometry>
        </mxCell>
        <mxCell id="hCn8fclELVwR4EzlVGi--115" value="" style="endArrow=none;html=1;rounded=0;labelBackgroundColor=default;strokeColor=#000000;strokeWidth=1;align=center;verticalAlign=middle;fontFamily=Helvetica;fontSize=11;fontColor=default;fillColor=#dae8fc;shape=connector;" edge="1" parent="hCn8fclELVwR4EzlVGi--111">
          <mxGeometry width="50" height="50" relative="1" as="geometry">
            <mxPoint y="35.7285714285714" as="sourcePoint" />
            <mxPoint x="17" y="35.7285714285714" as="targetPoint" />
          </mxGeometry>
        </mxCell>
        <mxCell id="hCn8fclELVwR4EzlVGi--116" value="" style="endArrow=none;html=1;rounded=0;labelBackgroundColor=default;strokeColor=#000000;strokeWidth=1;align=center;verticalAlign=middle;fontFamily=Helvetica;fontSize=11;fontColor=default;fillColor=#dae8fc;shape=connector;" edge="1" parent="hCn8fclELVwR4EzlVGi--111">
          <mxGeometry width="50" height="50" relative="1" as="geometry">
            <mxPoint y="33.11428571428576" as="sourcePoint" />
            <mxPoint x="17" y="33.11428571428576" as="targetPoint" />
          </mxGeometry>
        </mxCell>
        <mxCell id="hCn8fclELVwR4EzlVGi--117" value="" style="endArrow=none;html=1;rounded=0;labelBackgroundColor=default;strokeColor=#000000;strokeWidth=1;align=center;verticalAlign=middle;fontFamily=Helvetica;fontSize=11;fontColor=default;fillColor=#dae8fc;shape=connector;" edge="1" parent="hCn8fclELVwR4EzlVGi--111">
          <mxGeometry width="50" height="50" relative="1" as="geometry">
            <mxPoint y="27.885714285714243" as="sourcePoint" />
            <mxPoint x="17" y="27.885714285714243" as="targetPoint" />
          </mxGeometry>
        </mxCell>
        <mxCell id="hCn8fclELVwR4EzlVGi--118" value="" style="endArrow=none;html=1;rounded=0;labelBackgroundColor=default;strokeColor=#000000;strokeWidth=1;align=center;verticalAlign=middle;fontFamily=Helvetica;fontSize=11;fontColor=default;fillColor=#dae8fc;shape=connector;" edge="1" parent="hCn8fclELVwR4EzlVGi--111">
          <mxGeometry width="50" height="50" relative="1" as="geometry">
            <mxPoint y="30.5" as="sourcePoint" />
            <mxPoint x="17" y="30.5" as="targetPoint" />
          </mxGeometry>
        </mxCell>
        <mxCell id="hCn8fclELVwR4EzlVGi--119" value="" style="endArrow=none;html=1;rounded=0;labelBackgroundColor=default;strokeColor=#000000;strokeWidth=1;align=center;verticalAlign=middle;fontFamily=Helvetica;fontSize=11;fontColor=default;fillColor=#dae8fc;shape=connector;" edge="1" parent="hCn8fclELVwR4EzlVGi--111">
          <mxGeometry width="50" height="50" relative="1" as="geometry">
            <mxPoint y="25.2714285714286" as="sourcePoint" />
            <mxPoint x="17" y="25.2714285714286" as="targetPoint" />
          </mxGeometry>
        </mxCell>
        <mxCell id="hCn8fclELVwR4EzlVGi--120" value="" style="endArrow=none;html=1;rounded=0;labelBackgroundColor=default;strokeColor=#000000;strokeWidth=1;align=center;verticalAlign=middle;fontFamily=Helvetica;fontSize=11;fontColor=default;fillColor=#dae8fc;shape=connector;" edge="1" parent="hCn8fclELVwR4EzlVGi--111">
          <mxGeometry width="50" height="50" relative="1" as="geometry">
            <mxPoint x="91.79999999999995" y="38.342857142857156" as="sourcePoint" />
            <mxPoint x="108.79999999999995" y="38.342857142857156" as="targetPoint" />
          </mxGeometry>
        </mxCell>
        <mxCell id="hCn8fclELVwR4EzlVGi--121" value="" style="endArrow=none;html=1;rounded=0;labelBackgroundColor=default;strokeColor=#000000;strokeWidth=1;align=center;verticalAlign=middle;fontFamily=Helvetica;fontSize=11;fontColor=default;fillColor=#dae8fc;shape=connector;" edge="1" parent="hCn8fclELVwR4EzlVGi--111">
          <mxGeometry width="50" height="50" relative="1" as="geometry">
            <mxPoint x="91.79999999999995" y="35.7285714285714" as="sourcePoint" />
            <mxPoint x="108.79999999999995" y="35.7285714285714" as="targetPoint" />
          </mxGeometry>
        </mxCell>
        <mxCell id="hCn8fclELVwR4EzlVGi--122" value="" style="endArrow=none;html=1;rounded=0;labelBackgroundColor=default;strokeColor=#000000;strokeWidth=1;align=center;verticalAlign=middle;fontFamily=Helvetica;fontSize=11;fontColor=default;fillColor=#dae8fc;shape=connector;" edge="1" parent="hCn8fclELVwR4EzlVGi--111">
          <mxGeometry width="50" height="50" relative="1" as="geometry">
            <mxPoint x="91.79999999999995" y="33.11428571428576" as="sourcePoint" />
            <mxPoint x="108.79999999999995" y="33.11428571428576" as="targetPoint" />
          </mxGeometry>
        </mxCell>
        <mxCell id="hCn8fclELVwR4EzlVGi--123" value="" style="endArrow=none;html=1;rounded=0;labelBackgroundColor=default;strokeColor=#000000;strokeWidth=1;align=center;verticalAlign=middle;fontFamily=Helvetica;fontSize=11;fontColor=default;fillColor=#dae8fc;shape=connector;" edge="1" parent="hCn8fclELVwR4EzlVGi--111">
          <mxGeometry width="50" height="50" relative="1" as="geometry">
            <mxPoint x="91.79999999999995" y="27.885714285714243" as="sourcePoint" />
            <mxPoint x="108.79999999999995" y="27.885714285714243" as="targetPoint" />
          </mxGeometry>
        </mxCell>
        <mxCell id="hCn8fclELVwR4EzlVGi--124" value="" style="endArrow=none;html=1;rounded=0;labelBackgroundColor=default;strokeColor=#000000;strokeWidth=1;align=center;verticalAlign=middle;fontFamily=Helvetica;fontSize=11;fontColor=default;fillColor=#dae8fc;shape=connector;" edge="1" parent="hCn8fclELVwR4EzlVGi--111">
          <mxGeometry width="50" height="50" relative="1" as="geometry">
            <mxPoint x="91.79999999999995" y="30.5" as="sourcePoint" />
            <mxPoint x="108.79999999999995" y="30.5" as="targetPoint" />
          </mxGeometry>
        </mxCell>
        <mxCell id="hCn8fclELVwR4EzlVGi--125" value="" style="endArrow=none;html=1;rounded=0;labelBackgroundColor=default;strokeColor=#000000;strokeWidth=1;align=center;verticalAlign=middle;fontFamily=Helvetica;fontSize=11;fontColor=default;fillColor=#dae8fc;shape=connector;" edge="1" parent="hCn8fclELVwR4EzlVGi--111">
          <mxGeometry width="50" height="50" relative="1" as="geometry">
            <mxPoint x="91.79999999999995" y="25.2714285714286" as="sourcePoint" />
            <mxPoint x="108.79999999999995" y="25.2714285714286" as="targetPoint" />
          </mxGeometry>
        </mxCell>
        <mxCell id="hCn8fclELVwR4EzlVGi--126" value="" style="rounded=1;whiteSpace=wrap;html=1;pointerEvents=0;strokeColor=#000000;strokeWidth=1;align=center;verticalAlign=middle;fontFamily=Helvetica;fontSize=11;fillColor=#d5e8d4;fontColor=default;container=0;" vertex="1" parent="hCn8fclELVwR4EzlVGi--111">
          <mxGeometry x="23.799999999999955" y="23.528571428571468" width="59.5" height="17.42857142857143" as="geometry" />
        </mxCell>
        <mxCell id="hCn8fclELVwR4EzlVGi--127" value="HAWK" style="text;html=1;strokeColor=none;fillColor=none;align=center;verticalAlign=middle;whiteSpace=wrap;rounded=0;fontSize=11;fontFamily=Helvetica;fontColor=default;container=0;" vertex="1" parent="hCn8fclELVwR4EzlVGi--111">
          <mxGeometry x="28.049999999999955" y="12.19751020408171" width="51" height="41.33061224489796" as="geometry" />
        </mxCell>
        <mxCell id="hCn8fclELVwR4EzlVGi--128" value="" style="group" vertex="1" connectable="0" parent="1">
          <mxGeometry x="540" y="981" width="117.63636363636374" height="96" as="geometry" />
        </mxCell>
        <mxCell id="hCn8fclELVwR4EzlVGi--129" value="IE: x" style="text;html=1;strokeColor=none;fillColor=none;align=center;verticalAlign=middle;whiteSpace=wrap;rounded=0;fontSize=8;rotation=90;" vertex="1" parent="hCn8fclELVwR4EzlVGi--128">
          <mxGeometry x="84" y="22" width="54" height="10" as="geometry" />
        </mxCell>
        <mxCell id="hCn8fclELVwR4EzlVGi--130" value="Text" style="text;html=1;strokeColor=none;fillColor=none;align=center;verticalAlign=middle;whiteSpace=wrap;rounded=0;" vertex="1" parent="hCn8fclELVwR4EzlVGi--128">
          <mxGeometry y="59" width="80" height="25" as="geometry" />
        </mxCell>
        <mxCell id="hCn8fclELVwR4EzlVGi--131" value="MELSEC CPU" style="text;html=1;strokeColor=none;fillColor=none;align=center;verticalAlign=middle;whiteSpace=wrap;rounded=0;fontSize=9;" vertex="1" parent="hCn8fclELVwR4EzlVGi--128">
          <mxGeometry y="84" width="80" height="10" as="geometry" />
        </mxCell>
        <mxCell id="hCn8fclELVwR4EzlVGi--132" value="" style="rounded=0;whiteSpace=wrap;html=1;fontFamily=Helvetica;fontSize=11;fillColor=#e51400;strokeColor=#B20000;fontColor=#ffffff;" vertex="1" parent="hCn8fclELVwR4EzlVGi--128">
          <mxGeometry x="81.5" y="61.833333333333314" width="21.681818181818183" height="34.16666666666667" as="geometry" />
        </mxCell>
        <mxCell id="hCn8fclELVwR4EzlVGi--133" value="" style="rounded=0;whiteSpace=wrap;html=1;fontFamily=Helvetica;fontSize=11;fontColor=#ffffff;fillColor=#647687;strokeColor=#314354;" vertex="1" parent="hCn8fclELVwR4EzlVGi--128">
          <mxGeometry x="81.5" y="55" width="21.681818181818183" height="6.833333333333334" as="geometry" />
        </mxCell>
        <mxCell id="hCn8fclELVwR4EzlVGi--134" value="" style="rounded=0;whiteSpace=wrap;html=1;fontFamily=Helvetica;fontSize=11;fillColor=#7c8d9c;strokeColor=#23445d;fontColor=default;" vertex="1" parent="hCn8fclELVwR4EzlVGi--128">
          <mxGeometry x="103.18181818181824" y="55" width="14.454545454545455" height="41" as="geometry" />
        </mxCell>
        <mxCell id="hCn8fclELVwR4EzlVGi--135" value="" style="endArrow=none;html=1;rounded=0;labelBackgroundColor=default;strokeWidth=1;align=center;verticalAlign=middle;fontFamily=Helvetica;fontSize=11;fontColor=default;shape=connector;strokeColor=#ffffff;fillColor=#d5e8d4;" edge="1" parent="hCn8fclELVwR4EzlVGi--128">
          <mxGeometry width="50" height="50" relative="1" as="geometry">
            <mxPoint x="111.85454545454536" y="59.10000000000002" as="sourcePoint" />
            <mxPoint x="115.46818181818185" y="59.10000000000002" as="targetPoint" />
          </mxGeometry>
        </mxCell>
        <mxCell id="hCn8fclELVwR4EzlVGi--136" value="" style="endArrow=none;html=1;rounded=0;labelBackgroundColor=default;strokeWidth=1;align=center;verticalAlign=middle;fontFamily=Helvetica;fontSize=11;fontColor=default;shape=connector;strokeColor=#ffffff;fillColor=#d5e8d4;" edge="1" parent="hCn8fclELVwR4EzlVGi--128">
          <mxGeometry width="50" height="50" relative="1" as="geometry">
            <mxPoint x="111.85454545454536" y="60.46666666666664" as="sourcePoint" />
            <mxPoint x="115.46818181818185" y="60.46666666666664" as="targetPoint" />
          </mxGeometry>
        </mxCell>
        <mxCell id="hCn8fclELVwR4EzlVGi--137" value="" style="endArrow=none;html=1;rounded=0;labelBackgroundColor=default;strokeWidth=1;align=center;verticalAlign=middle;fontFamily=Helvetica;fontSize=11;fontColor=default;shape=connector;strokeColor=#ffffff;fillColor=#d5e8d4;" edge="1" parent="hCn8fclELVwR4EzlVGi--128">
          <mxGeometry width="50" height="50" relative="1" as="geometry">
            <mxPoint x="111.85454545454536" y="61.833333333333314" as="sourcePoint" />
            <mxPoint x="115.46818181818185" y="61.833333333333314" as="targetPoint" />
          </mxGeometry>
        </mxCell>
        <mxCell id="hCn8fclELVwR4EzlVGi--138" value="" style="endArrow=none;html=1;rounded=0;labelBackgroundColor=default;strokeWidth=1;align=center;verticalAlign=middle;fontFamily=Helvetica;fontSize=11;fontColor=default;shape=connector;strokeColor=#ffffff;fillColor=#d5e8d4;" edge="1" parent="hCn8fclELVwR4EzlVGi--128">
          <mxGeometry width="50" height="50" relative="1" as="geometry">
            <mxPoint x="111.85454545454536" y="63.19999999999999" as="sourcePoint" />
            <mxPoint x="115.46818181818185" y="63.19999999999999" as="targetPoint" />
          </mxGeometry>
        </mxCell>
        <mxCell id="hCn8fclELVwR4EzlVGi--139" value="" style="endArrow=none;html=1;rounded=0;labelBackgroundColor=default;strokeWidth=1;align=center;verticalAlign=middle;fontFamily=Helvetica;fontSize=11;fontColor=default;shape=connector;strokeColor=#ffffff;fillColor=#d5e8d4;" edge="1" parent="hCn8fclELVwR4EzlVGi--128">
          <mxGeometry width="50" height="50" relative="1" as="geometry">
            <mxPoint x="111.85454545454536" y="63.19999999999999" as="sourcePoint" />
            <mxPoint x="115.46818181818185" y="63.19999999999999" as="targetPoint" />
          </mxGeometry>
        </mxCell>
        <mxCell id="hCn8fclELVwR4EzlVGi--140" value="" style="endArrow=none;html=1;rounded=0;labelBackgroundColor=default;strokeWidth=1;align=center;verticalAlign=middle;fontFamily=Helvetica;fontSize=11;fontColor=default;shape=connector;strokeColor=#ffffff;fillColor=#d5e8d4;" edge="1" parent="hCn8fclELVwR4EzlVGi--128">
          <mxGeometry width="50" height="50" relative="1" as="geometry">
            <mxPoint x="111.85454545454536" y="64.56666666666666" as="sourcePoint" />
            <mxPoint x="115.46818181818185" y="64.56666666666666" as="targetPoint" />
          </mxGeometry>
        </mxCell>
        <mxCell id="hCn8fclELVwR4EzlVGi--141" value="" style="endArrow=none;html=1;rounded=0;labelBackgroundColor=default;strokeWidth=1;align=center;verticalAlign=middle;fontFamily=Helvetica;fontSize=11;fontColor=default;shape=connector;strokeColor=#ffffff;fillColor=#d5e8d4;" edge="1" parent="hCn8fclELVwR4EzlVGi--128">
          <mxGeometry width="50" height="50" relative="1" as="geometry">
            <mxPoint x="111.85454545454536" y="65.93333333333334" as="sourcePoint" />
            <mxPoint x="115.46818181818185" y="65.93333333333334" as="targetPoint" />
          </mxGeometry>
        </mxCell>
        <mxCell id="hCn8fclELVwR4EzlVGi--142" value="" style="rounded=0;whiteSpace=wrap;html=1;fontFamily=Helvetica;fontSize=11;fillColor=#7c8d9c;strokeColor=#23445d;fontColor=default;" vertex="1" parent="hCn8fclELVwR4EzlVGi--128">
          <mxGeometry x="103.18181818181824" y="87.80000000000001" width="14.454545454545455" height="8.2" as="geometry" />
        </mxCell>
        <mxCell id="hCn8fclELVwR4EzlVGi--143" value="" style="rounded=0;whiteSpace=wrap;html=1;fontFamily=Helvetica;fontSize=11;fillColor=#7c8d9c;strokeColor=#23445d;fontColor=default;" vertex="1" parent="hCn8fclELVwR4EzlVGi--128">
          <mxGeometry x="103.18181818181824" y="82.33333333333331" width="14.454545454545455" height="5.466666666666667" as="geometry" />
        </mxCell>
        <mxCell id="hCn8fclELVwR4EzlVGi--144" value="" style="group;fontFamily=Helvetica;fontSize=11;fillColor=#bac8d3;strokeColor=#23445d;fontColor=default;" vertex="1" connectable="0" parent="hCn8fclELVwR4EzlVGi--128">
          <mxGeometry x="107.5181818181818" y="89.85000000000002" width="5.781818181818181" height="4.783333333333333" as="geometry" />
        </mxCell>
        <mxCell id="hCn8fclELVwR4EzlVGi--145" value="" style="rounded=0;whiteSpace=wrap;html=1;pointerEvents=0;strokeColor=#23445d;strokeWidth=1;align=center;verticalAlign=middle;fontFamily=Helvetica;fontSize=11;fillColor=#bac8d3;fontColor=default;" vertex="1" parent="hCn8fclELVwR4EzlVGi--144">
          <mxGeometry width="5.781818181818181" height="4.783333333333333" as="geometry" />
        </mxCell>
        <mxCell id="hCn8fclELVwR4EzlVGi--146" value="" style="rounded=0;whiteSpace=wrap;html=1;pointerEvents=0;strokeColor=#23445d;strokeWidth=1;align=center;verticalAlign=middle;fontFamily=Helvetica;fontSize=11;fillColor=#bac8d3;fontColor=default;" vertex="1" parent="hCn8fclELVwR4EzlVGi--144">
          <mxGeometry x="4.047272727272729" y="3.7203703703703703" width="1.7345454545454548" height="0.5314814814814814" as="geometry" />
        </mxCell>
        <mxCell id="hCn8fclELVwR4EzlVGi--147" value="" style="rounded=0;whiteSpace=wrap;html=1;pointerEvents=0;strokeColor=#23445d;strokeWidth=1;align=center;verticalAlign=middle;fontFamily=Helvetica;fontSize=11;fillColor=#bac8d3;fontColor=default;" vertex="1" parent="hCn8fclELVwR4EzlVGi--144">
          <mxGeometry y="3.7203703703703703" width="1.7345454545454548" height="0.5314814814814814" as="geometry" />
        </mxCell>
        <mxCell id="hCn8fclELVwR4EzlVGi--148" value="" style="shape=image;verticalLabelPosition=bottom;labelBackgroundColor=default;verticalAlign=top;aspect=fixed;imageAspect=0;image=data:image/svg+xml,PHN2ZyB4bWxucz0iaHR0cDovL3d3dy53My5vcmcvMjAwMC9zdmciIHZpZXdCb3g9IjAgMCA1Ny45MyAxMDIuMjgiPjxkZWZzPjxzdHlsZT4uY2xzLTF7ZmlsbDojYTZjN2Q1O30uY2xzLTIsLmNscy01LC5jbHMtOCwuY2xzLTl7ZmlsbDpub25lO30uY2xzLTJ7c3Ryb2tlOiMwMDVmODc7c3Ryb2tlLXdpZHRoOjAuODhweDt9LmNscy0xMCwuY2xzLTExLC5jbHMtMywuY2xzLTR7ZmlsbDojYTZjNGQxO30uY2xzLTEwLC5jbHMtMywuY2xzLTQsLmNscy01LC5jbHMtOCwuY2xzLTl7c3Ryb2tlOiMwMDU1N2M7fS5jbHMtMywuY2xzLTl7c3Ryb2tlLXdpZHRoOjAuODVweDt9LmNscy00LC5jbHMtNXtzdHJva2Utd2lkdGg6MC4yM3B4O30uY2xzLTZ7ZmlsbDojMDA1NTdjO30uY2xzLTd7ZmlsbDojZDllZGY1O30uY2xzLTEwLC5jbHMtOHtzdHJva2Utd2lkdGg6MC40OHB4O308L3N0eWxlPjwvZGVmcz48ZyBkYXRhLW5hbWU9Ik9yaWdpbmFsIiBpZD0iT3JpZ2luYWwtMiI+PHBhdGggdHJhbnNmb3JtPSJ0cmFuc2xhdGUoLTM2Ny44OCAtMTM1Ljk1KSIgZD0iTTQxOC43NiwxNTYuOTNoLTMuMnYuNDdoLTEuNDh2LS40N2gtMS4yM2wtNS4xLS4yMS0xLjQzLDYuMTEsNi41MywwaDEuMjN2LS40OGgxLjQ4di40OGgzLjJhMS4yMywxLjIzLDAsMCwwLDEuMjQtMS4yNHMwLDAsMCwwdi0zLjQzQTEuMjMsMS4yMywwLDAsMCw0MTguNzYsMTU2LjkzWiIgY2xhc3M9ImNscy0xIi8+PHBhdGggdHJhbnNmb3JtPSJ0cmFuc2xhdGUoLTM2Ny44OCAtMTM1Ljk1KSIgZD0iTTQxOC43NiwxNTYuOTNoLTMuMnYuNDdoLTEuNDh2LS40N2gtMS4yM2wtNS4xLS4yMS0xLjQzLDYuMTEsNi41MywwaDEuMjN2LS40OGgxLjQ4di40OGgzLjJhMS4yMywxLjIzLDAsMCwwLDEuMjQtMS4yNHMwLDAsMCwwdi0zLjQzQTEuMjMsMS4yMywwLDAsMCw0MTguNzYsMTU2LjkzWiIgY2xhc3M9ImNscy0yIi8+PHJlY3QgaGVpZ2h0PSI1LjkyIiB3aWR0aD0iMS4yMyIgeT0iMjAuOTgiIHg9IjQ0Ljk2IiBjbGFzcz0iY2xzLTMiLz48cGF0aCB0cmFuc2Zvcm09InRyYW5zbGF0ZSgtMzY3Ljg4IC0xMzUuOTUpIiBkPSJNNDE4LjE1LDE2Mi44NXYtNS45MiIgY2xhc3M9ImNscy00Ii8+PGxpbmUgeTI9IjI2LjkiIHgyPSI0Ny42OCIgeTE9IjIwLjk4IiB4MT0iNDcuNjgiIGNsYXNzPSJjbHMtMyIvPjxwYXRoIHRyYW5zZm9ybT0idHJhbnNsYXRlKC0zNjcuODggLTEzNS45NSkiIGQ9Ik00MTguNzYsMTM5Ljg2aC0zLjJ2LjQ3aC0xLjQ4di0uNDdoLTEuMjNsLTYuNTMsMCwxLjQzLDYuMTEsNS4xLS4yMWgxLjIzdi0uNDdoMS40OHYuNDdoMy4yYTEuMjQsMS4yNCwwLDAsMCwxLjI0LTEuMjR2LTMuNDJzMCwwLDAsMEExLjIzLDEuMjMsMCwwLDAsNDE4Ljc2LDEzOS44NloiIGNsYXNzPSJjbHMtMSIvPjxwYXRoIHRyYW5zZm9ybT0idHJhbnNsYXRlKC0zNjcuODggLTEzNS45NSkiIGQ9Ik00MTguNzYsMTM5Ljg2aC0zLjJ2LjQ3aC0xLjQ4di0uNDdoLTEuMjNsLTYuNTMsMCwxLjQzLDYuMTEsNS4xLS4yMWgxLjIzdi0uNDdoMS40OHYuNDdoMy4yYTEuMjQsMS4yNCwwLDAsMCwxLjI0LTEuMjR2LTMuNDJzMCwwLDAsMEExLjIzLDEuMjMsMCwwLDAsNDE4Ljc2LDEzOS44NloiIGNsYXNzPSJjbHMtMiIvPjxyZWN0IGhlaWdodD0iNS45MiIgd2lkdGg9IjEuMjMiIHk9IjMuOTEiIHg9IjQ0Ljk2IiBjbGFzcz0iY2xzLTMiLz48cGF0aCB0cmFuc2Zvcm09InRyYW5zbGF0ZSgtMzY3Ljg4IC0xMzUuOTUpIiBkPSJNNDE4LjE1LDEzOS44NnY1LjkyIiBjbGFzcz0iY2xzLTQiLz48bGluZSB5Mj0iMy45MSIgeDI9IjQ3LjY4IiB5MT0iOS44MyIgeDE9IjQ3LjY4IiBjbGFzcz0iY2xzLTMiLz48cG9seWxpbmUgcG9pbnRzPSIzMi41MyAzOS4wOCAzNC41IDM0LjA0IDIzLjEgMzQuMDQgMjQuOTYgMzkuMDgiIGNsYXNzPSJjbHMtMyIvPjxyZWN0IGhlaWdodD0iOS44MiIgd2lkdGg9IjE3LjIzIiB5PSIyNi4xOSIgeD0iMjAuMiIgY2xhc3M9ImNscy0zIi8+PGNpcmNsZSB0cmFuc2Zvcm09InRyYW5zbGF0ZSgtMzk1LjU5IDI3LjM4KSByb3RhdGUoLTIyLjUpIiByPSIxNC45NSIgY3k9IjE1MS4zMiIgY3g9IjM5Ni43MSIgY2xhc3M9ImNscy0zIi8+PHBhdGggdHJhbnNmb3JtPSJ0cmFuc2xhdGUoLTM2Ny44OCAtMTM1Ljk1KSIgZD0iTTM5MC4zNCwxNDMuMjlhMTAuNDksMTAuNDksMCwwLDAtMS42NywxLjY2LDEwLjI2LDEwLjI2LDAsMSwwLDIuMjYtMi4xWiIgY2xhc3M9ImNscy0zIi8+PHJlY3QgaGVpZ2h0PSIyLjA1IiB3aWR0aD0iMi4wNSIgeT0iMTkiIHg9IjI0LjE4IiBjbGFzcz0iY2xzLTUiLz48cmVjdCBoZWlnaHQ9IjIuMDUiIHdpZHRoPSIyLjA1IiB5PSIxOSIgeD0iMjcuNzkiIGNsYXNzPSJjbHMtNSIvPjxyZWN0IGhlaWdodD0iMi4wNSIgd2lkdGg9IjIuMDUiIHk9IjE5IiB4PSIzMS40MSIgY2xhc3M9ImNscy01Ii8+PHJlY3QgaGVpZ2h0PSIxLjkxIiB3aWR0aD0iNi44IiB5PSI5LjY5IiB4PSIyNS40MiIgY2xhc3M9ImNscy02Ii8+PHJlY3QgaGVpZ2h0PSI1LjY3IiB3aWR0aD0iMTQuMTciIHk9IjEyLjUxIiB4PSIyMS43MyIgY2xhc3M9ImNscy03Ii8+PHBhdGggdHJhbnNmb3JtPSJ0cmFuc2xhdGUoLTM2Ny44OCAtMTM1Ljk1KSIgZD0iTTM5MC4xMSwxNDYuMzlhOC4yNCw4LjI0LDAsMSwwLDMuODMtMi44Miw3LjgzLDcuODMsMCwwLDAtMi4xNywxLjE2QTguMTYsOC4xNiwwLDAsMCwzOTAuMTEsMTQ2LjM5WiIgY2xhc3M9ImNscy01Ii8+PHBhdGggdHJhbnNmb3JtPSJ0cmFuc2xhdGUoLTM2Ny44OCAtMTM1Ljk1KSIgZD0iTTQwOC4xOCwxNTEuMzJhMTEuNDgsMTEuNDgsMCwxLDEtMTEuNDctMTEuNDhBMTEuNDcsMTEuNDcsMCwwLDEsNDA4LjE4LDE1MS4zMloiIGNsYXNzPSJjbHMtOCIvPjxwYXRoIHRyYW5zZm9ybT0idHJhbnNsYXRlKC0zNjcuODggLTEzNS45NSkiIGQ9Ik00MDYuMjMsMjE0Ljc3djkuODdzLjQ3LTEuMzUsMy4wNy0xLjc2YzMuMTItLjQ5LDcuNTEsMS4zOCwxMC4xOSwyLjc0VjIwMy45MWMtMi42OCwxLjM3LTcuMDcsMy4yNC0xMC4xOSwyLjc1LTIuNi0uNDEtMy4wNy0xLjc2LTMuMDctMS43NloiIGNsYXNzPSJjbHMtMyIvPjxyZWN0IGhlaWdodD0iNDYuMDYiIHdpZHRoPSI0LjI4IiB5PSI1NS43OSIgeD0iNTEuNjEiIGNsYXNzPSJjbHMtMyIvPjxyZWN0IGhlaWdodD0iMjguNzMiIHdpZHRoPSIxLjYyIiB5PSI2NC40NiIgeD0iNTUuODkiIGNsYXNzPSJjbHMtMyIvPjxsaW5lIHkyPSI4OSIgeDI9IjUwLjA1IiB5MT0iNjguNjQiIHgxPSI1MC4wNSIgY2xhc3M9ImNscy05Ii8+PGxpbmUgeTI9Ijg2LjkzIiB4Mj0iNDIuNDEiIHkxPSI3MC43MSIgeDE9IjQyLjQxIiBjbGFzcz0iY2xzLTkiLz48cGF0aCB0cmFuc2Zvcm09InRyYW5zbGF0ZSgtMzY3Ljg4IC0xMzUuOTUpIiBkPSJNMzg3LjQ3LDIxNC43N3Y5Ljg3cy0uNDctMS4zNS0zLjA3LTEuNzZjLTMuMTMtLjQ5LTcuNTEsMS4zOC0xMC4xOSwyLjc0VjIwMy45MWMyLjY4LDEuMzcsNy4wNiwzLjI0LDEwLjE5LDIuNzUsMi42LS40MSwzLjA3LTEuNzYsMy4wNy0xLjc2WiIgY2xhc3M9ImNscy0zIi8+PHJlY3QgaGVpZ2h0PSI0Ni4wNiIgd2lkdGg9IjQuMjgiIHk9IjU1Ljc5IiB4PSIyLjA0IiBjbGFzcz0iY2xzLTMiLz48cmVjdCBoZWlnaHQ9IjI4LjczIiB3aWR0aD0iMS42MiIgeT0iNjQuNDYiIHg9IjAuNDMiIGNsYXNzPSJjbHMtMyIvPjxsaW5lIHkyPSI4OSIgeDI9IjcuODgiIHkxPSI2OC42NCIgeDE9IjcuODgiIGNsYXNzPSJjbHMtOSIvPjxsaW5lIHkyPSI4Ni45MyIgeDI9IjE1LjUyIiB5MT0iNzAuNzEiIHgxPSIxNS41MiIgY2xhc3M9ImNscy05Ii8+PHJlY3QgaGVpZ2h0PSIyOC4xOCIgd2lkdGg9IjE4Ljc1IiB5PSI2NC43MyIgeD0iMTkuNTkiIGNsYXNzPSJjbHMtMyIvPjxwb2x5Z29uIHBvaW50cz0iMjQuOTYgNTAuNTEgMjAuMiA1NS4yOCAyMC4yIDU5LjEgMjEuMSA2MC4wMSAyMS4xIDY0LjczIDI4LjkyIDY0LjczIDI4LjkyIDQ5LjQgMjQuOTYgNTAuNTEiIGNsYXNzPSJjbHMtMyIvPjxwb2x5Z29uIHBvaW50cz0iMzIuODggNTAuNTEgMzcuNjUgNTUuMjggMzcuNjUgNTkuMSAzNi43NCA2MC4wMSAzNi43NCA2NC43MyAyOC45MiA2NC43MyAyOC45MiA0OS40IDMyLjg4IDUwLjUxIiBjbGFzcz0iY2xzLTMiLz48cmVjdCBoZWlnaHQ9IjE2LjIiIHdpZHRoPSI3Ljc5IiB5PSIzOS4wOCIgeD0iMjQuOTYiIGNsYXNzPSJjbHMtMyIvPjxwb2x5Z29uIHBvaW50cz0iMjYuMjcgNTEuMjQgMjMuNjkgNDYuNzcgMjYuMjcgNDIuMzEgMzEuNDIgNDIuMzEgMzQgNDYuNzcgMzEuNDIgNTEuMjQgMjYuMjcgNTEuMjQiIGNsYXNzPSJjbHMtMyIvPjxsaW5lIHkyPSI1NS4yOCIgeDI9IjM3LjY1IiB5MT0iNTUuMjgiIHgxPSIyMC4yIiBjbGFzcz0iY2xzLTkiLz48cGF0aCB0cmFuc2Zvcm09InRyYW5zbGF0ZSgtMzY3Ljg4IC0xMzUuOTUpIiBkPSJNMzk5LjU2LDE4Mi45MmEyLjgzLDIuODMsMCwxLDEtMi44My0yLjgzQTIuODMsMi44MywwLDAsMSwzOTkuNTYsMTgyLjkyWiIgY2xhc3M9ImNscy0xMCIvPjxsaW5lIHkyPSIzNC4zNyIgeDI9IjM3LjQzIiB5MT0iMzQuMzciIHgxPSIyMC4yIiBjbGFzcz0iY2xzLTUiLz48cmVjdCBoZWlnaHQ9IjMuMDciIHdpZHRoPSIxLjkzIiB5PSIzNi4wMSIgeD0iMjEuMzgiIGNsYXNzPSJjbHMtMTAiLz48cmVjdCBoZWlnaHQ9IjMuMDciIHdpZHRoPSIxLjkzIiB5PSIzNi4wMSIgeD0iMzQuNTEiIGNsYXNzPSJjbHMtMTAiLz48cmVjdCBoZWlnaHQ9IjYuMDIiIHdpZHRoPSIxMS45MiIgeT0iNTguNzEiIHg9IjIyLjcxIiBjbGFzcz0iY2xzLTEwIi8+PHBhdGggdHJhbnNmb3JtPSJ0cmFuc2xhdGUoLTM2Ny44OCAtMTM1Ljk1KSIgZD0iTTM5Ny45NCwyMzIuOTRhMS4yMywxLjIzLDAsMSwxLTIuNDIsMFYxODMuMzFhMS4yMywxLjIzLDAsMSwxLDIuNDIsMFoiIGNsYXNzPSJjbHMtMTEiLz48cGF0aCB0cmFuc2Zvcm09InRyYW5zbGF0ZSgtMzY3Ljg4IC0xMzUuOTUpIiBkPSJNMzk3Ljk0LDIzMi45NGExLjIzLDEuMjMsMCwxLDEtMi40MiwwVjE4My4zMWExLjIzLDEuMjMsMCwxLDEsMi40MiwwWiIgY2xhc3M9ImNscy05Ii8+PC9nPjwvc3ZnPg==;fontFamily=Helvetica;fontSize=11;fontColor=default;points=[[0.9,0.07,0,0,0],[0.9,0.24,0,0,0]];" vertex="1" parent="1">
          <mxGeometry x="123" y="1009" width="58" height="102" as="geometry" />
        </mxCell>
        <mxCell id="hCn8fclELVwR4EzlVGi--149" value="Text" style="text;html=1;strokeColor=none;fillColor=none;align=center;verticalAlign=middle;whiteSpace=wrap;rounded=0;fontSize=11;fontFamily=Helvetica;fontColor=default;points=[];" vertex="1" parent="1">
          <mxGeometry x="33" y="1019" width="90" height="30" as="geometry" />
        </mxCell>
        <mxCell id="hCn8fclELVwR4EzlVGi--150" value="&amp;lt;type&amp;gt;" style="text;html=1;strokeColor=none;fillColor=none;align=center;verticalAlign=middle;whiteSpace=wrap;rounded=0;fontSize=11;fontFamily=Helvetica;fontColor=default;points=[];" vertex="1" parent="1">
          <mxGeometry x="33" y="1049" width="90" height="30" as="geometry" />
        </mxCell>
        <mxCell id="hCn8fclELVwR4EzlVGi--151" value="&amp;lt;addressering&amp;gt;" style="text;html=1;strokeColor=none;fillColor=none;align=center;verticalAlign=middle;whiteSpace=wrap;rounded=0;fontSize=11;fontFamily=Helvetica;fontColor=default;points=[];" vertex="1" parent="1">
          <mxGeometry x="33" y="1079" width="90" height="30" as="geometry" />
        </mxCell>
      </root>
    </mxGraphModel>
  </diagram>
</mxfile>
